<svg xmlns="http://www.w3.org/2000/svg" xmlns:xlink="http://www.w3.org/1999/xlink" width="3710" height="3710" viewBox="0 0 3710 3710"><defs><style>.a{fill:url(#a);}.b{fill:url(#b);}.c{opacity:0.64;}.d{fill:url(#c);}.e{fill:url(#d);}.f{fill:url(#e);}.g{fill:url(#f);}.h{fill:url(#g);}.i{fill:url(#h);}.j{fill:url(#i);}.k{fill:url(#j);}.ag,.ah,.l{fill:#fff;}.m{fill:url(#k);}.n{opacity:0.89;}.o{fill:url(#l);}.p{fill:url(#m);}.q{fill:url(#n);}.r{fill:url(#o);}.s{fill:url(#p);}.t{fill:url(#q);}.u{fill:url(#r);}.v{fill:url(#s);}.w{fill:url(#t);}.x{fill:url(#u);}.y{fill:url(#v);}.z{fill:url(#w);}.aa{fill:url(#x);}.ab{fill:url(#y);}.ac{fill:url(#z);}.ad{fill:url(#aa);}.ae{fill:#91b3fa;}.af{fill:url(#ab);}.ag{opacity:0.15;}.ah{opacity:0.65;}.ai{fill:url(#ac);}.aj{fill:url(#ad);}.ak{fill:url(#ae);}.al{fill:url(#af);}.am{fill:url(#ag);}.an{fill:url(#ah);}.ao{fill:url(#ai);}.ap{fill:url(#aj);}.aq{fill:url(#ak);}.ar{fill:url(#al);}.as{fill:url(#am);}.at{fill:url(#an);}.au{fill:url(#ao);}.av{fill:url(#ap);}.aw{fill:url(#aq);}.ax{fill:url(#ar);}.ay{fill:url(#as);}.az{fill:url(#at);}.ba{fill:url(#au);}.bb{fill:url(#av);}.bc{fill:url(#aw);}.bd{fill:url(#ax);}.be{fill:url(#ay);}.bf{fill:url(#az);}.bg{fill:url(#ba);}.bh{fill:url(#bb);}.bi{fill:url(#bc);}.bj{fill:url(#bd);}.bk{fill:url(#be);}.bl{fill:url(#bf);}.bm{fill:url(#bg);}.bn{fill:url(#bh);}.bo{fill:url(#bi);}.bp{fill:url(#bj);}.bq{fill:url(#bk);}.br{fill:url(#bl);}.bs{fill:url(#bm);}.bt{fill:url(#bn);}.bu{fill:url(#bo);}.bv{fill:url(#bp);}.bw{fill:url(#bq);}.bx{fill:url(#br);}.by{fill:url(#bs);}.bz{fill:url(#bt);}.ca{fill:url(#bu);}.cb{fill:url(#bv);}.cc{fill:url(#bw);}.cd{fill:url(#bx);}.ce{fill:url(#by);}.cf{fill:url(#bz);}.cg{fill:url(#ca);}.ch{fill:url(#cb);}.ci{fill:#cff;}.cj{fill:url(#cc);}.ck,.cl{opacity:0.82;}.ck{fill:url(#cd);}.cl{fill:url(#ce);}.cm{fill:url(#cf);}.cn{fill:url(#cg);}.co{fill:url(#ch);}.cp{fill:url(#ci);}.cq{fill:url(#cj);}.cr{fill:url(#ck);}.cs{fill:url(#cl);}.ct{fill:url(#cm);}.cu{fill:url(#cn);}.cv{fill:none;stroke:#000;stroke-miterlimit:10;}.cw{fill:url(#co);}.cx{fill:url(#cp);}.cy{fill:url(#cq);}.cz{fill:url(#cr);}.da{fill:url(#cs);}.db{fill:url(#ct);}.dc{fill:url(#cu);}.dd{fill:url(#cv);}.de{fill:url(#cw);}.df{fill:url(#cx);}.dg{fill:url(#cy);}.dh{fill:url(#cz);}.di{fill:url(#da);}.dj{fill:url(#db);}.dk{fill:url(#dc);}.dl{fill:url(#dd);}.dm{fill:url(#de);}.dn{fill:url(#df);}.do{fill:url(#dg);}.dp{fill:url(#dh);}.dq{fill:url(#di);}.dr{fill:url(#dj);}.ds{fill:url(#dk);}.dt{fill:url(#dl);}.du{fill:url(#dm);}.dv{fill:url(#dn);}.dw{fill:url(#do);}.dx{fill:url(#dp);}.dy{fill:url(#dq);}.dz{fill:url(#dr);}.ea{fill:url(#ds);}.eb{fill:url(#dt);}.ec{fill:url(#du);}.ed{fill:url(#dv);}.ee{fill:url(#dw);}.ef{fill:url(#dx);}.eg{fill:url(#dy);}.eh{fill:url(#dz);}.ei{fill:url(#ea);}.ej{fill:url(#eb);}.ek{fill:url(#ec);}.el{fill:url(#ed);}.em{fill:url(#ee);}.en{fill:url(#ef);}.eo{fill:url(#eg);}.ep{fill:url(#eh);}.eq{fill:url(#ei);}.er{fill:url(#ej);}.es{fill:url(#ek);}.et{fill:url(#el);}.eu{fill:url(#em);}.ev{fill:url(#en);}.ew{fill:url(#eo);}.ex{fill:url(#ep);}.ey{fill:url(#eq);}.ez{fill:url(#er);}.fa{fill:url(#es);}.fb{fill:url(#et);}.fc{fill:url(#eu);}.fd{fill:url(#ev);}.fe{fill:url(#ew);}.ff{fill:url(#ex);}.fg{fill:#dbe8f1;}.fh{fill:url(#ey);}.fi{fill:url(#ez);}.fj{fill:url(#fa);}.fk{fill:url(#fb);}.fl{fill:url(#fc);}.fm{fill:url(#fd);}.fn{fill:url(#fe);}.fo{fill:url(#ff);}.fp{fill:url(#fg);}</style><linearGradient id="a" x1="3922.06" y1="4543.17" x2="994.31" y2="907.08" gradientUnits="userSpaceOnUse"><stop offset="0" stop-color="#d9e1fc"/><stop offset="1" stop-color="#e7edfb"/></linearGradient><radialGradient id="b" cx="2902.46" cy="863.92" r="362.81" gradientUnits="userSpaceOnUse"><stop offset="0" stop-color="#f8a251"/><stop offset="0.21" stop-color="#f8a54b"/><stop offset="0.48" stop-color="#faae3c"/><stop offset="0.78" stop-color="#fcbd22"/><stop offset="1" stop-color="#feca0a"/></radialGradient><radialGradient id="c" cx="2797.88" cy="1790.06" r="7.2" gradientTransform="translate(-2030.57 -263.53) scale(1.24 1.19)" gradientUnits="userSpaceOnUse"><stop offset="0" stop-color="#3ea8da"/><stop offset="0.26" stop-color="#3599ce"/><stop offset="0.76" stop-color="#1e72b0"/><stop offset="1" stop-color="#125da0"/></radialGradient><radialGradient id="d" cx="2547.72" cy="1732.94" r="195.47" xlink:href="#c"/><radialGradient id="e" cx="2316.15" cy="1568.96" r="6.76" xlink:href="#c"/><radialGradient id="f" cx="2416.02" cy="1373.54" r="7.2" xlink:href="#c"/><radialGradient id="g" cx="2657.91" cy="1453.54" r="192.43" xlink:href="#c"/><radialGradient id="h" cx="2878.83" cy="1623.84" r="6.81" xlink:href="#c"/><radialGradient id="i" cx="2595.77" cy="1590.96" r="245.72" xlink:href="#c"/><radialGradient id="j" cx="2595.76" cy="1590.96" r="54.82" xlink:href="#c"/><linearGradient id="k" x1="1300.6" y1="1497.11" x2="2943.73" y2="1497.11" gradientTransform="translate(-10.82 -9.42)" gradientUnits="userSpaceOnUse"><stop offset="0" stop-color="#ccc"/><stop offset="1" stop-color="#d3d3d3"/></linearGradient><linearGradient id="l" x1="1318.19" y1="1057.91" x2="2404.6" y2="1057.91" gradientTransform="translate(-19.97 -3.85)" gradientUnits="userSpaceOnUse"><stop offset="0" stop-color="#529a00"/><stop offset="0.19" stop-color="#52a201"/><stop offset="0.49" stop-color="#52b805"/><stop offset="0.86" stop-color="#52db0b"/><stop offset="1" stop-color="#52eb0e"/></linearGradient><linearGradient id="m" x1="1318.19" y1="1194.78" x2="2594.96" y2="1194.78" gradientTransform="translate(-17.12 -5.88)" gradientUnits="userSpaceOnUse"><stop offset="0" stop-color="#3fa6d8"/><stop offset="0.04" stop-color="#3ba2d4"/><stop offset="0.46" stop-color="#1d7cb6"/><stop offset="0.79" stop-color="#0a65a3"/><stop offset="1" stop-color="#035d9c"/></linearGradient><linearGradient id="n" x1="1318.19" y1="1225.46" x2="2828.46" y2="1225.46" gradientTransform="translate(-16.5 -8.34)" xlink:href="#l"/><linearGradient id="o" x1="1318.19" y1="982.57" x2="1951.75" y2="982.57" gradientTransform="translate(-21.5 0.91)" xlink:href="#m"/><linearGradient id="p" x1="1318.19" y1="1020.24" x2="2534.48" y2="1020.24" gradientTransform="translate(-20.78 -5.21)" xlink:href="#l"/><linearGradient id="q" x1="2554.6" y1="1020.24" x2="2751.12" y2="1020.24" gradientTransform="translate(-20.94 -20.45)" xlink:href="#m"/><linearGradient id="r" x1="1318.19" y1="1129.97" x2="2534.48" y2="1129.97" gradientTransform="translate(-18.47 -5.23)" xlink:href="#m"/><linearGradient id="s" x1="2782.3" y1="1129.97" x2="2888.72" y2="1129.97" gradientTransform="translate(-18.67 -24.3)" xlink:href="#l"/><linearGradient id="t" x1="2022.65" y1="1095.58" x2="2134.62" y2="1095.58" gradientTransform="translate(-19.23 -8.42)" xlink:href="#l"/><linearGradient id="u" x1="2152.39" y1="1095.58" x2="2213.02" y2="1095.58" gradientTransform="translate(-19.25 -10.6)" xlink:href="#m"/><linearGradient id="v" x1="2858.35" y1="861.34" x2="2892.5" y2="861.34" gradientTransform="translate(-24.32 -25.08)" xlink:href="#l"/><linearGradient id="w" x1="2795.73" y1="861.34" x2="2829.89" y2="861.34" gradientTransform="translate(-24.3 -23.77)" xlink:href="#l"/><linearGradient id="x" x1="2733.12" y1="861.34" x2="2767.27" y2="861.34" gradientTransform="translate(-24.29 -22.45)" xlink:href="#l"/><linearGradient id="y" x1="1615.28" y1="2382.84" x2="1615.28" y2="3779.93" gradientTransform="translate(-41.75 35.42) rotate(-1.2)" gradientUnits="userSpaceOnUse"><stop offset="0"/><stop offset="1" stop-color="#1a1a1a"/></linearGradient><linearGradient id="z" x1="1525.05" y1="141.39" x2="1548.31" y2="2536.84" xlink:href="#y"/><linearGradient id="aa" x1="1534.58" y1="2418.64" x2="1534.58" y2="815.25" gradientTransform="translate(-41.75 35.42) rotate(-1.2)" xlink:href="#c"/><linearGradient id="ab" x1="1697.65" y1="2019.5" x2="1599.78" y2="3194.06" xlink:href="#y"/><linearGradient id="ac" x1="1756.43" y1="1723.32" x2="2076.14" y2="1723.32" gradientTransform="translate(3846.83 -390.06) rotate(90)" xlink:href="#c"/><linearGradient id="ad" x1="1756.44" y1="1874.64" x2="2076.14" y2="1874.64" gradientTransform="translate(3997.23 -238.73) rotate(90)" xlink:href="#c"/><linearGradient id="ae" x1="1756.43" y1="1773.76" x2="1942.88" y2="1773.76" gradientTransform="matrix(0, 1, -1, 0, 3830.33, -273.4)" xlink:href="#c"/><linearGradient id="af" x1="1756.43" y1="1824.2" x2="2114.36" y2="1824.2" gradientTransform="matrix(0, 1, -1, 0, 3966.21, -308.17)" xlink:href="#c"/><linearGradient id="ag" x1="2120.28" y1="1824.2" x2="2178.12" y2="1824.2" gradientTransform="translate(4180.01 -520.67) rotate(90)" xlink:href="#c"/><linearGradient id="ah" x1="2187.29" y1="1824.19" x2="2218.61" y2="1824.19" gradientTransform="translate(4233.76 -574.09) rotate(90)" xlink:href="#c"/><linearGradient id="ai" x1="1756.44" y1="1925.09" x2="1960.37" y2="1925.09" gradientTransform="matrix(0, 1, -1, 0, 3989.48, -130.76)" xlink:href="#c"/><linearGradient id="aj" x1="1963.75" y1="1925.09" x2="1996.7" y2="1925.09" gradientTransform="translate(4111.29 -251.83) rotate(90)" xlink:href="#c"/><linearGradient id="ak" x1="2001.92" y1="1925.09" x2="2019.77" y2="1925.09" gradientTransform="matrix(0, 1, -1, 0, 4141.92, -282.27)" xlink:href="#c"/><linearGradient id="al" x1="1755.64" y1="2315.46" x2="1873.09" y2="2315.46" gradientTransform="matrix(0, 1, -1, 0, 4333.41, 303.38)" xlink:href="#c"/><linearGradient id="am" x1="1755.64" y1="2365.9" x2="1824.14" y2="2365.9" gradientTransform="matrix(0, 1, -1, 0, 4359.07, 378.15)" xlink:href="#c"/><linearGradient id="an" x1="2276.99" y1="2317.97" x2="2496.4" y2="2317.97" gradientTransform="matrix(0, 1, -1, 0, 4908.25, -262.92)" xlink:href="#c"/><linearGradient id="ao" x1="2368.45" y1="2368.41" x2="2496.4" y2="2368.41" gradientTransform="matrix(0, 1, -1, 0, 5004.11, -257.93)" xlink:href="#c"/><linearGradient id="ap" x1="2250.76" y1="2418.86" x2="2496.4" y2="2418.86" gradientTransform="translate(4995.4 -149) rotate(90)" xlink:href="#c"/><linearGradient id="aq" x1="2207.01" y1="2418.86" x2="2246.7" y2="2418.86" gradientTransform="matrix(0, 1, -1, 0, 4848.67, -3.17)" xlink:href="#c"/><linearGradient id="ar" x1="2179.22" y1="2418.86" x2="2200.71" y2="2418.86" gradientTransform="matrix(0, 1, -1, 0, 4811.79, 33.49)" xlink:href="#c"/><linearGradient id="as" x1="1756.44" y1="2122.12" x2="1760.79" y2="2122.12" gradientTransform="matrix(0, 1, -1, 0, 4085.5, 165.45)" xlink:href="#c"/><linearGradient id="at" x1="1885.67" y1="2958.03" x2="1885.67" y2="2249.85" gradientTransform="matrix(1, 0, 0, 1, 0, 0)" xlink:href="#l"/><linearGradient id="au" x1="1779.57" y1="2549.68" x2="2231.29" y2="2479.11" gradientTransform="matrix(1, 0, 0, 1, 0, 0)" xlink:href="#y"/><linearGradient id="av" x1="1779.57" y1="2549.68" x2="2231.29" y2="2479.11" gradientUnits="userSpaceOnUse"><stop offset="0" stop-color="#1a1a1a"/><stop offset="1" stop-color="#1a1a1a"/></linearGradient><linearGradient id="aw" x1="1722.06" y1="3007.71" x2="2057.82" y2="2955.25" xlink:href="#av"/><linearGradient id="ax" x1="1801.75" y1="3047.75" x2="1970.04" y2="3021.46" xlink:href="#av"/><linearGradient id="ay" x1="1848.66" y1="3152.97" x2="1930.03" y2="3152.97" gradientUnits="userSpaceOnUse"><stop offset="0" stop-color="#b4b5b4"/><stop offset="1" stop-color="#666"/></linearGradient><linearGradient id="az" x1="1812.41" y1="3277.95" x2="1957.63" y2="3255.26" xlink:href="#av"/><linearGradient id="ba" x1="1668.99" y1="3350.96" x2="2078" y2="3287.06" xlink:href="#av"/><linearGradient id="bb" x1="1672.89" y1="3412.1" x2="1716.89" y2="3405.22" gradientTransform="matrix(1, 0, 0, 1, 0, 0)" xlink:href="#y"/><linearGradient id="bc" x1="2051.47" y1="3412.06" x2="2094.64" y2="3405.31" gradientTransform="matrix(1, 0, 0, 1, 0, 0)" xlink:href="#y"/><linearGradient id="bd" x1="1869.49" y1="3397.28" x2="1901.21" y2="3392.32" gradientTransform="matrix(1, 0, 0, 1, 0, 0)" xlink:href="#y"/><linearGradient id="be" x1="1680.51" y1="3340.62" x2="1700.42" y2="3337.51" xlink:href="#av"/><linearGradient id="bf" x1="2058.83" y1="3340.62" x2="2078.74" y2="3337.51" xlink:href="#av"/><linearGradient id="bg" x1="1874.62" y1="3342.4" x2="1889.8" y2="3340.03" xlink:href="#av"/><linearGradient id="bh" x1="2052.33" y1="1437.51" x2="1900.67" y2="1750.12" gradientTransform="translate(125.54 -13.82) rotate(4.14)" xlink:href="#y"/><linearGradient id="bi" x1="1884.32" y1="2686.52" x2="1884.32" y2="2070.62" xlink:href="#b"/><linearGradient id="bj" x1="1588.76" y1="2194.83" x2="1919.47" y2="2993.69" gradientUnits="userSpaceOnUse"><stop offset="0" stop-color="#fcb9b8"/><stop offset="1" stop-color="#fd908c"/></linearGradient><linearGradient id="bk" x1="6289.9" y1="2193.11" x2="6620.61" y2="2991.97" gradientTransform="matrix(-1, 0, 0, 1, 8464.93, 0)" xlink:href="#bj"/><linearGradient id="bl" x1="7722.53" y1="10606.33" x2="7934.02" y2="10606.33" gradientTransform="translate(12693.7 -4318.26) rotate(90.85)" xlink:href="#y"/><linearGradient id="bm" x1="7804.8" y1="10252.66" x2="7581.56" y2="10857.32" gradientTransform="translate(12662.06 -4342.84) rotate(90.41)" xlink:href="#y"/><linearGradient id="bn" x1="-741.26" y1="-2127.1" x2="-529.68" y2="-2127.1" gradientTransform="matrix(-0.06, 0.7, 1, 0.09, 3885.18, 3962.1)" xlink:href="#y"/><linearGradient id="bo" x1="8844.28" y1="-2598.56" x2="8620.93" y2="-1993.57" gradientTransform="matrix(0.04, -0.7, 1, 0.07, 3482.28, 9488.17)" xlink:href="#y"/><linearGradient id="bp" x1="1879.07" y1="2260.79" x2="1874.67" y2="1877.94" xlink:href="#bj"/><linearGradient id="bq" x1="1873.03" y1="2280.35" x2="1870.68" y2="2075.83" xlink:href="#bj"/><linearGradient id="br" x1="1881.53" y1="2408.44" x2="1881.53" y2="2063.37" xlink:href="#b"/><linearGradient id="bs" x1="1890.58" y1="2219.75" x2="1870.46" y2="3034.73" gradientUnits="userSpaceOnUse"><stop offset="0" stop-color="#b3b3b3"/><stop offset="1" stop-color="#f6f6f6"/></linearGradient><linearGradient id="bt" x1="1840.16" y1="2696" x2="2133.7" y2="3204.43" gradientUnits="userSpaceOnUse"><stop offset="0" stop-color="#1a1a1a"/><stop offset="0.22" stop-color="#313132"/><stop offset="0.5" stop-color="#464748"/><stop offset="0.76" stop-color="#535455"/><stop offset="1" stop-color="#57585a"/></linearGradient><linearGradient id="bu" x1="1657.07" y1="2728.36" x2="1933.14" y2="3206.52" xlink:href="#bt"/><linearGradient id="bv" x1="1885.52" y1="1937.42" x2="1899.23" y2="1604.28" gradientTransform="translate(125.54 -13.82) rotate(4.14)" xlink:href="#bj"/><linearGradient id="bw" x1="2049.63" y1="1396.66" x2="1875.5" y2="1755.57" gradientTransform="translate(125.54 -13.82) rotate(4.14)" xlink:href="#y"/><linearGradient id="bx" x1="2098.74" y1="1275.48" x2="2120.22" y2="753.41" gradientTransform="translate(-502.59 1321.06) rotate(-12.75)" xlink:href="#bj"/><linearGradient id="by" x1="2102.08" y1="1482.98" x2="2102.08" y2="1543.51" gradientTransform="matrix(1, -0.09, 0.09, 1, -334.76, 663.22)" gradientUnits="userSpaceOnUse"><stop offset="0" stop-color="#fcb9b8"/><stop offset="1" stop-color="#fd90b9"/></linearGradient><linearGradient id="bz" x1="1874.35" y1="2230.05" x2="1874.35" y2="2116.41" xlink:href="#b"/><linearGradient id="ca" x1="1915.95" y1="2161.67" x2="1915.95" y2="2044.18" xlink:href="#b"/><linearGradient id="cb" x1="1829.62" y1="2160.18" x2="1829.62" y2="2042.69" xlink:href="#b"/><linearGradient id="cc" x1="1858.42" y1="1976.2" x2="1899.27" y2="1905.44" gradientTransform="matrix(1, 0, 0, 1, 0, 0)" xlink:href="#y"/><linearGradient id="cd" x1="1855.03" y1="1971.82" x2="1872.94" y2="1940.8" gradientUnits="userSpaceOnUse"><stop offset="0" stop-color="#fff"/><stop offset="1" stop-color="#e6e6e6"/></linearGradient><linearGradient id="ce" x1="1921.82" y1="1975.52" x2="1940.35" y2="1943.43" xlink:href="#cd"/><linearGradient id="cf" x1="1855.13" y1="1965.95" x2="1869.09" y2="1941.76" xlink:href="#cd"/><linearGradient id="cg" x1="1863.1" y1="1968.14" x2="1874.92" y2="1947.66" xlink:href="#cd"/><linearGradient id="ch" x1="1925.05" y1="1966.56" x2="1935.54" y2="1948.38" xlink:href="#cd"/><linearGradient id="ci" x1="1935.91" y1="1967.31" x2="1946.04" y2="1949.77" xlink:href="#cd"/><linearGradient id="cj" x1="1923.32" y1="2656.55" x2="1923.32" y2="2578.19" xlink:href="#cd"/><linearGradient id="ck" x1="676.79" y1="3535.25" x2="676.79" y2="2656.55" xlink:href="#cd"/><linearGradient id="cl" x1="3150.01" y1="3535.25" x2="3150.01" y2="2656.55" xlink:href="#cd"/><linearGradient id="cm" x1="1911.16" y1="2906.41" x2="1911.16" y2="2691.26" xlink:href="#cd"/><linearGradient id="cn" x1="593.9" y1="2767.36" x2="593.9" y2="2402.79" gradientUnits="userSpaceOnUse"><stop offset="0" stop-color="#529a00"/><stop offset="0.19" stop-color="#52a101"/><stop offset="0.47" stop-color="#52b404"/><stop offset="0.79" stop-color="#52d30a"/><stop offset="1" stop-color="#52eb0e"/></linearGradient><linearGradient id="co" x1="991.51" y1="2409.27" x2="1436.44" y2="2409.27" gradientUnits="userSpaceOnUse"><stop offset="0" stop-color="#b3b3b3"/><stop offset="0.52" stop-color="#b1b1b1"/><stop offset="0.77" stop-color="#a9a9a9"/><stop offset="0.97" stop-color="#9c9c9c"/><stop offset="1" stop-color="#999"/></linearGradient><linearGradient id="cp" x1="1008.18" y1="2402.38" x2="1405.68" y2="2402.38" xlink:href="#a"/><linearGradient id="cq" x1="1213.97" y1="2311.53" x2="1324.59" y2="2311.53" xlink:href="#b"/><linearGradient id="cr" x1="1213.97" y1="2411.39" x2="1324.59" y2="2411.39" xlink:href="#b"/><linearGradient id="cs" x1="1213.97" y1="2344.82" x2="1278.48" y2="2344.82" xlink:href="#b"/><linearGradient id="ct" x1="1213.97" y1="2378.1" x2="1337.81" y2="2378.1" xlink:href="#b"/><linearGradient id="cu" x1="1339.86" y1="2378.1" x2="1359.87" y2="2378.1" xlink:href="#b"/><linearGradient id="cv" x1="1363.04" y1="2378.1" x2="1373.88" y2="2378.1" xlink:href="#b"/><linearGradient id="cw" x1="1213.97" y1="2444.68" x2="1284.53" y2="2444.68" xlink:href="#b"/><linearGradient id="cx" x1="1285.7" y1="2444.68" x2="1297.1" y2="2444.68" xlink:href="#b"/><linearGradient id="cy" x1="1298.91" y1="2444.68" x2="1305.08" y2="2444.68" xlink:href="#b"/><linearGradient id="cz" x1="474.72" y1="3073.09" x2="1122.52" y2="3073.09" gradientTransform="matrix(1, 0, 0, 1, 0, 0)" xlink:href="#y"/><linearGradient id="da" x1="579.78" y1="3131.94" x2="579.78" y2="2999.43" xlink:href="#cn"/><linearGradient id="db" x1="881.1" y1="3131.94" x2="881.1" y2="2972.31" xlink:href="#cn"/><linearGradient id="dc" x1="620.95" y1="3146.16" x2="1289.21" y2="3146.16" gradientTransform="matrix(1, 0, 0, 1, 0, 0)" xlink:href="#y"/><linearGradient id="dd" x1="555.82" y1="2540.17" x2="1042.42" y2="2540.17" gradientTransform="matrix(1, 0, 0, 1, 0, 0)" xlink:href="#m"/><linearGradient id="de" x1="680.59" y1="2147.3" x2="935.37" y2="2147.3" gradientUnits="userSpaceOnUse"><stop offset="0" stop-color="#f9b776"/><stop offset="1" stop-color="#f47960"/></linearGradient><linearGradient id="df" x1="972.55" y1="2522.69" x2="1413.17" y2="2522.69" xlink:href="#de"/><linearGradient id="dg" x1="860.5" y1="3317.22" x2="1122.52" y2="3317.22" gradientTransform="matrix(1, 0, 0, 1, 0, 0)" xlink:href="#y"/><linearGradient id="dh" x1="893.44" y1="3426.02" x2="975.54" y2="3426.02" gradientTransform="matrix(1, 0, 0, 1, 0, 0)" xlink:href="#y"/><linearGradient id="di" x1="1203.37" y1="3461.7" x2="1436.44" y2="3461.7" gradientTransform="matrix(1, 0, 0, 1, 0, 0)" xlink:href="#y"/><linearGradient id="dj" x1="912.91" y1="2537.54" x2="1035.93" y2="2537.54" xlink:href="#de"/><linearGradient id="dk" x1="671.67" y1="2030.07" x2="1008.18" y2="2030.07" gradientTransform="matrix(1, 0, 0, 1, 0, 0)" xlink:href="#y"/><linearGradient id="dl" x1="810.83" y1="2788.61" x2="810.83" y2="2424.04" gradientTransform="matrix(-1, 0, 0, 1, 4223.75, 0)" xlink:href="#cn"/><linearGradient id="dm" x1="691.65" y1="3094.34" x2="1339.46" y2="3094.34" gradientTransform="matrix(-1, 0, 0, 1, 4223.75, 0)" xlink:href="#y"/><linearGradient id="dn" x1="1713.29" y1="2406.49" x2="2158.22" y2="2406.49" gradientTransform="matrix(-1, 0, 0, 1, 4727.43, 0)" xlink:href="#co"/><linearGradient id="do" x1="1850.79" y1="2307.68" x2="1961.4" y2="2307.68" gradientTransform="translate(782.66 -1.64)" xlink:href="#b"/><linearGradient id="dp" x1="1850.79" y1="2407.55" x2="1961.4" y2="2407.55" gradientTransform="translate(780.2 -1.67)" xlink:href="#b"/><linearGradient id="dq" x1="1850.79" y1="2340.97" x2="1915.3" y2="2340.97" gradientTransform="translate(781.85 -2.22)" xlink:href="#b"/><linearGradient id="dr" x1="1850.79" y1="2374.26" x2="1974.63" y2="2374.26" gradientTransform="translate(781.02 -1.49)" xlink:href="#b"/><linearGradient id="ds" x1="1976.67" y1="2374.26" x2="1996.68" y2="2374.26" gradientTransform="translate(780.99 0.33)" xlink:href="#b"/><linearGradient id="dt" x1="1999.86" y1="2374.26" x2="2010.69" y2="2374.26" gradientTransform="translate(780.99 0.79)" xlink:href="#b"/><linearGradient id="du" x1="1850.79" y1="2440.83" x2="1921.35" y2="2440.83" gradientTransform="translate(779.38 -2.17)" xlink:href="#b"/><linearGradient id="dv" x1="1922.51" y1="2440.83" x2="1933.91" y2="2440.83" gradientTransform="translate(779.37 -1.13)" xlink:href="#b"/><linearGradient id="dw" x1="1935.72" y1="2440.83" x2="1941.9" y2="2440.83" gradientTransform="translate(779.36 -0.87)" xlink:href="#b"/><linearGradient id="dx" x1="796.72" y1="3153.19" x2="796.72" y2="3020.68" gradientTransform="matrix(-1, 0, 0, 1, 4223.75, 0)" xlink:href="#cn"/><linearGradient id="dy" x1="1098.04" y1="3153.19" x2="1098.04" y2="2993.56" gradientTransform="matrix(-1, 0, 0, 1, 4223.75, 0)" xlink:href="#cn"/><linearGradient id="dz" x1="837.88" y1="3167.41" x2="1506.15" y2="3167.41" gradientTransform="matrix(-1, 0, 0, 1, 4223.75, 0)" xlink:href="#y"/><linearGradient id="ea" x1="2979.48" y1="2424.01" x2="3466.14" y2="2704.99" gradientUnits="userSpaceOnUse"><stop offset="0" stop-color="#3fa6d8"/><stop offset="0.13" stop-color="#3499cd"/><stop offset="0.49" stop-color="#1978b2"/><stop offset="0.79" stop-color="#0964a2"/><stop offset="1" stop-color="#035d9c"/></linearGradient><linearGradient id="eb" x1="897.52" y1="2168.55" x2="1152.3" y2="2168.55" gradientTransform="matrix(-1, 0, 0, 1, 4223.75, 0)" xlink:href="#de"/><linearGradient id="ec" x1="1189.48" y1="2543.94" x2="1630.1" y2="2543.94" gradientTransform="matrix(-1, 0, 0, 1, 4223.75, 0)" xlink:href="#de"/><linearGradient id="ed" x1="1077.44" y1="3338.47" x2="1339.46" y2="3338.47" gradientTransform="matrix(-1, 0, 0, 1, 4223.75, 0)" xlink:href="#y"/><linearGradient id="ee" x1="1110.38" y1="3447.27" x2="1192.48" y2="3447.27" gradientTransform="matrix(-1, 0, 0, 1, 4223.75, 0)" xlink:href="#y"/><linearGradient id="ef" x1="1420.31" y1="3482.95" x2="1653.37" y2="3482.95" gradientTransform="matrix(-1, 0, 0, 1, 4223.75, 0)" xlink:href="#y"/><linearGradient id="eg" x1="1129.84" y1="2558.79" x2="1252.87" y2="2558.79" gradientTransform="matrix(-1, 0, 0, 1, 4223.75, 0)" xlink:href="#de"/><linearGradient id="eh" x1="3041.21" y1="2132.02" x2="3374.25" y2="2132.02" gradientTransform="matrix(1, 0, 0, 1, 0, 0)" xlink:href="#y"/><linearGradient id="ei" x1="3301.03" y1="2360.47" x2="3427.46" y2="2360.47" gradientTransform="matrix(1, 0, 0, 1, 0, 0)" xlink:href="#y"/><linearGradient id="ej" x1="2930.53" y1="2433.23" x2="3135.04" y2="2433.23" gradientTransform="matrix(1, 0, 0, 1, 0, 0)" xlink:href="#y"/><linearGradient id="ek" x1="3021.21" y1="2319.84" x2="3060.72" y2="2319.84" gradientTransform="matrix(1, 0, 0, 1, 0, 0)" xlink:href="#y"/><linearGradient id="el" x1="3055.35" y1="2522.2" x2="3090.13" y2="2522.2" gradientTransform="matrix(1, 0, 0, 1, 0, 0)" xlink:href="#y"/><linearGradient id="em" x1="3129.16" y1="1742.43" x2="3310.36" y2="1742.43" gradientTransform="matrix(1, 0, 0, 1, 0, 0)" xlink:href="#m"/><linearGradient id="en" x1="3219.76" y1="1848.6" x2="3219.76" y2="1790.02" xlink:href="#cn"/><linearGradient id="eo" x1="3275.53" y1="1677.62" x2="3290.33" y2="1651.98" gradientTransform="matrix(1, 0, 0, 1, 0, 0)" xlink:href="#l"/><linearGradient id="ep" x1="3198.92" y1="1752.89" x2="3240.6" y2="1680.7" gradientTransform="matrix(1, 0, 0, 1, 0, 0)" xlink:href="#l"/><linearGradient id="eq" x1="3219.76" y1="1760.73" x2="3219.76" y2="1724.12" xlink:href="#cn"/><linearGradient id="er" x1="3036.17" y1="1374.97" x2="3036.17" y2="1326.88" xlink:href="#cn"/><linearGradient id="es" x1="3097.36" y1="1374.97" x2="3097.36" y2="1326.88" xlink:href="#cn"/><linearGradient id="et" x1="3158.56" y1="1374.97" x2="3158.56" y2="1326.88" xlink:href="#cn"/><linearGradient id="eu" x1="3219.76" y1="1374.97" x2="3219.76" y2="1326.88" xlink:href="#cn"/><linearGradient id="ev" x1="3219.76" y1="1436.16" x2="3219.76" y2="1388.08" xlink:href="#cn"/><linearGradient id="ew" x1="3219.76" y1="1497.36" x2="3219.76" y2="1449.28" xlink:href="#cn"/><linearGradient id="ex" x1="3221.94" y1="1611.89" x2="3221.94" y2="1515.72" xlink:href="#cn"/><linearGradient id="ey" x1="2843.2" y1="1283.88" x2="2997.13" y2="1283.88" gradientTransform="matrix(1, 0, 0, 1, 0, 0)" xlink:href="#l"/><linearGradient id="ez" x1="2843.2" y1="1422.85" x2="2997.13" y2="1422.85" gradientTransform="matrix(1, 0, 0, 1, 0, 0)" xlink:href="#l"/><linearGradient id="fa" x1="2843.2" y1="1330.21" x2="2932.97" y2="1330.21" gradientTransform="matrix(1, 0, 0, 1, 0, 0)" xlink:href="#l"/><linearGradient id="fb" x1="2843.2" y1="1376.53" x2="3015.53" y2="1376.53" gradientTransform="matrix(1, 0, 0, 1, 0, 0)" xlink:href="#l"/><linearGradient id="fc" x1="3018.38" y1="1376.53" x2="3046.22" y2="1376.53" gradientTransform="matrix(1, 0, 0, 1, 0, 0)" xlink:href="#l"/><linearGradient id="fd" x1="3050.64" y1="1376.53" x2="3065.72" y2="1376.53" gradientTransform="matrix(1, 0, 0, 1, 0, 0)" xlink:href="#l"/><linearGradient id="fe" x1="2843.2" y1="1469.17" x2="2941.39" y2="1469.17" gradientTransform="matrix(1, 0, 0, 1, 0, 0)" xlink:href="#l"/><linearGradient id="ff" x1="2943.01" y1="1469.17" x2="2958.88" y2="1469.17" gradientTransform="matrix(1, 0, 0, 1, 0, 0)" xlink:href="#l"/><linearGradient id="fg" x1="2961.39" y1="1469.17" x2="2969.98" y2="1469.17" gradientTransform="matrix(1, 0, 0, 1, 0, 0)" xlink:href="#l"/></defs><path class="a" d="M3116.62,3109.23c-67.25,70.79-130.88,116.45-181.16,152.52-590.95,424-1290.21,300.42-1438.82,270.24C1277.19,3487.41,853,3401.26,546.31,3040.6,82.31,2495,154.56,1635.31,514.47,1067.84,580.3,964,928,387.93,1634.83,295.54c427.74-55.91,926.35,56.86,1287.43,359.37C3680.19,1289.91,3626.23,2572.72,3116.62,3109.23Z"/><path class="b" d="M3265.27,878.45V844.57A32.27,32.27,0,0,0,3233,812.29h-35.87a25.52,25.52,0,0,1-24.8-19.54A278.67,278.67,0,0,0,3142,717.63a25.5,25.5,0,0,1,3.93-31l23.36-23.36a32.28,32.28,0,0,0,0-45.64l-24-24a32.26,32.26,0,0,0-45.64,0l-22.44,22.44a25.5,25.5,0,0,1-31.37,3.69,278.89,278.89,0,0,0-77.33-32.45,25.48,25.48,0,0,1-19.28-24.72V533.38A32.27,32.27,0,0,0,2917,501.11H2883.1a32.27,32.27,0,0,0-32.27,32.27v29.26a25.58,25.58,0,0,1-19.44,24.77,278.43,278.43,0,0,0-78.16,33,25.62,25.62,0,0,1-31.63-3.56l-19.77-19.77a32.26,32.26,0,0,0-45.64,0l-24,24a32.26,32.26,0,0,0,0,45.64l35.54,35.54a278.87,278.87,0,0,0-41.11,95,25.49,25.49,0,0,1-24.88,19.93h-29.86a32.27,32.27,0,0,0-32.27,32.27v33.89a32.27,32.27,0,0,0,32.27,32.27h33.48A25.47,25.47,0,0,1,2630,934.21a278.74,278.74,0,0,0,33.11,74.56,25.55,25.55,0,0,1-3.44,31.79l-24,24a32.26,32.26,0,0,0,0,45.64l24,24a32.26,32.26,0,0,0,45.64,0l26.68-26.68a25.53,25.53,0,0,1,30.64-4.14,278.31,278.31,0,0,0,73.3,28.63,25.54,25.54,0,0,1,19.8,24.85v37.65a32.27,32.27,0,0,0,32.27,32.28h33.89a32.27,32.27,0,0,0,32.27-32.28v-40.09a25.53,25.53,0,0,1,18.94-24.64,278.63,278.63,0,0,0,71.18-30.3,25.55,25.55,0,0,1,31.31,3.74l27.57,27.57a32.26,32.26,0,0,0,45.64,0l24-24a32.26,32.26,0,0,0,0-45.64l-27.82-27.82a25.55,25.55,0,0,1-3.82-31.18,278.86,278.86,0,0,0,30.17-72.26,25.53,25.53,0,0,1,24.7-19.16H3233A32.27,32.27,0,0,0,3265.27,878.45Zm-347.51,153.37a173.66,173.66,0,0,1-190.41-190.41c8.05-81.24,73.75-146.94,155-155a173.64,173.64,0,0,1,190.4,190.41C3064.7,958.06,2999,1023.77,2917.76,1031.82Z"/><g class="c"><path class="d" d="M1421.76,1876.61a4.82,4.82,0,0,1-3.4-1.39,4.43,4.43,0,0,1,.12-6.44q4.2-3.91,8.24-7.93a4.87,4.87,0,0,1,6.69-.11,4.44,4.44,0,0,1,.1,6.44q-4.15,4.14-8.47,8.15A4.83,4.83,0,0,1,1421.76,1876.61Z"/><path class="e" d="M1179.42,1971c-6.41,0-12.9-.18-19.28-.51a4.56,4.56,0,1,1,.52-9.1c7.79.41,15.67.57,23.57.46h.06a4.56,4.56,0,1,1,.07,9.11C1182.71,1971,1181.06,1971,1179.42,1971Zm28.75-1.15a4.67,4.67,0,0,1-4.71-4.18,4.62,4.62,0,0,1,4.32-4.92c7.8-.62,15.68-1.52,23.42-2.66a4.69,4.69,0,0,1,5.38,3.81,4.57,4.57,0,0,1-3.95,5.19c-8,1.18-16.05,2.1-24.07,2.74Zm-71.58-1.4a3.9,3.9,0,0,1-.59,0c-8-1-16-2.18-23.92-3.65a4.57,4.57,0,0,1-3.74-5.34,4.72,4.72,0,0,1,5.54-3.61c7.67,1.44,15.5,2.63,23.28,3.56a4.59,4.59,0,0,1,4.11,5.08A4.66,4.66,0,0,1,1136.59,1968.45Zm118.81-5.57a4.69,4.69,0,0,1-4.6-3.56,4.54,4.54,0,0,1,3.57-5.44c7.65-1.66,15.32-3.59,22.81-5.74a4.74,4.74,0,0,1,5.88,3.06,4.53,4.53,0,0,1-3.17,5.67c-7.7,2.21-15.59,4.19-23.45,5.9A5.33,5.33,0,0,1,1255.4,1962.88Zm-165.71-3.19a5.15,5.15,0,0,1-1.22-.15c-7.75-2-15.55-4.26-23.18-6.76a4.52,4.52,0,0,1-3-5.78,4.78,4.78,0,0,1,6-2.84c7.43,2.43,15,4.64,22.57,6.57a4.54,4.54,0,0,1,3.35,5.57A4.7,4.7,0,0,1,1089.69,1959.69Zm211.51-10a4.72,4.72,0,0,1-4.42-3,4.5,4.5,0,0,1,2.76-5.86c7.32-2.64,14.65-5.56,21.8-8.69a4.81,4.81,0,0,1,6.26,2.27,4.5,4.5,0,0,1-2.35,6c-7.35,3.21-14.88,6.21-22.39,8.92A4.84,4.84,0,0,1,1301.2,1949.73Zm-256.75-4.85a4.86,4.86,0,0,1-1.82-.35c-7.4-3-14.81-6.26-22-9.73a4.48,4.48,0,0,1-2.11-6.11,4.81,4.81,0,0,1,6.34-2c7,3.38,14.23,6.57,21.44,9.47a4.49,4.49,0,0,1,2.53,6A4.73,4.73,0,0,1,1044.45,1944.88Zm300.28-14.17a4.77,4.77,0,0,1-4.17-2.4,4.48,4.48,0,0,1,1.93-6.17c6.89-3.56,13.75-7.41,20.38-11.42a4.81,4.81,0,0,1,6.51,1.43,4.46,4.46,0,0,1-1.48,6.28c-6.81,4.13-13.86,8.08-20.94,11.74A4.82,4.82,0,0,1,1344.73,1930.71Zm-343-6.43a4.8,4.8,0,0,1-2.39-.63c-6.94-3.93-13.82-8.15-20.44-12.52a4.44,4.44,0,0,1-1.23-6.33,4.83,4.83,0,0,1,6.56-1.19c6.45,4.26,13.15,8.36,19.9,12.19a4.47,4.47,0,0,1,1.68,6.24A4.77,4.77,0,0,1,1001.72,1924.28Zm383.46-18.07a4.81,4.81,0,0,1-3.83-1.87,4.45,4.45,0,0,1,1-6.37c6.33-4.44,12.57-9.15,18.57-14a4.84,4.84,0,0,1,6.65.56,4.44,4.44,0,0,1-.58,6.42c-6.15,5-12.57,9.82-19.08,14.39A4.8,4.8,0,0,1,1385.18,1906.21Zm-422.87-7.94a4.83,4.83,0,0,1-2.93-1c-6.33-4.82-12.55-9.9-18.48-15.1a4.44,4.44,0,0,1-.32-6.43,4.86,4.86,0,0,1,6.68-.31c5.77,5.06,11.82,10,18,14.69a4.45,4.45,0,0,1,.78,6.4A4.79,4.79,0,0,1,962.31,1898.27Zm-35.35-31a4.81,4.81,0,0,1-3.41-1.4c-5.56-5.59-11-11.45-16.14-17.41a4.44,4.44,0,0,1,.6-6.41,4.86,4.86,0,0,1,6.66.58c5,5.8,10.3,11.49,15.7,16.93a4.44,4.44,0,0,1-.13,6.44A4.82,4.82,0,0,1,927,1867.31ZM896.37,1832a4.77,4.77,0,0,1-3.83-1.89c-4.7-6.26-9.25-12.77-13.52-19.37a4.45,4.45,0,0,1,1.51-6.27,4.83,4.83,0,0,1,6.51,1.45c4.15,6.42,8.58,12.76,13.16,18.85a4.46,4.46,0,0,1-1.06,6.36A4.8,4.8,0,0,1,896.37,1832Zm-25.29-39.06a4.77,4.77,0,0,1-4.18-2.41c-2.41-4.38-4.78-8.88-7-13.39-1.25-2.52-2.46-5-3.65-7.57a4.49,4.49,0,0,1,2.37-6,4.79,4.79,0,0,1,6.25,2.28c1.15,2.46,2.34,4.92,3.55,7.37,2.19,4.39,4.49,8.78,6.85,13a4.47,4.47,0,0,1-2,6.16A4.78,4.78,0,0,1,871.08,1792.9Zm-19.6-42a4.72,4.72,0,0,1-4.43-3c-2.81-7.28-5.38-14.74-7.64-22.17a4.54,4.54,0,0,1,3.2-5.66,4.75,4.75,0,0,1,5.86,3.09c2.21,7.23,4.71,14.48,7.44,21.57a4.5,4.5,0,0,1-2.79,5.85A4.73,4.73,0,0,1,851.48,1750.9ZM838,1706.71a4.69,4.69,0,0,1-4.61-3.57c-1.73-7.53-3.21-15.25-4.42-23a4.58,4.58,0,0,1,4-5.18,4.69,4.69,0,0,1,5.37,3.83c1.17,7.5,2.62,15,4.3,22.34a4.56,4.56,0,0,1-3.59,5.44A5.14,5.14,0,0,1,838,1706.71Zm-7.08-45.54a4.67,4.67,0,0,1-4.71-4.19c-.63-7.7-1-15.55-1.1-23.33a4.64,4.64,0,0,1,4.67-4.6,4.71,4.71,0,0,1,4.78,4.5c.09,7.57.45,15.21,1.08,22.7a4.63,4.63,0,0,1-4.34,4.91Z"/><path class="f" d="M830.37,1615h-.28a4.61,4.61,0,0,1-4.44-4.81q.35-5.76.89-11.5a4.69,4.69,0,0,1,5.14-4.12,4.62,4.62,0,0,1,4.28,5q-.54,5.6-.88,11.2A4.66,4.66,0,0,1,830.37,1615Z"/></g><g class="c"><path class="g" d="M949.67,1380.27a4.82,4.82,0,0,1-3.57-1.56,4.45,4.45,0,0,1,.47-6.43q4.5-3.78,9.16-7.42a4.86,4.86,0,0,1,6.65.66,4.46,4.46,0,0,1-.69,6.41c-3,2.37-6,4.77-8.92,7.23A4.8,4.8,0,0,1,949.67,1380.27Z"/><path class="h" d="M1528.34,1646.27h-.17a4.62,4.62,0,0,1-4.55-4.71q.23-6.06.22-12.12c0-3.42,0-6.83-.16-10.25a4.73,4.73,0,0,1,9.45-.28q.16,5.27.17,10.53,0,6.22-.24,12.44A4.65,4.65,0,0,1,1528.34,1646.27Zm-1.47-45.29a4.67,4.67,0,0,1-4.7-4.11c-.75-7.36-1.79-14.82-3.07-22.16a4.57,4.57,0,0,1,3.88-5.25,4.7,4.7,0,0,1,5.44,3.73c1.32,7.55,2.38,15.21,3.16,22.79a4.6,4.6,0,0,1-4.24,5Zm-7.8-44.69a4.69,4.69,0,0,1-4.59-3.5c-1.8-7.21-3.86-14.47-6.16-21.57a4.53,4.53,0,0,1,3.11-5.7,4.76,4.76,0,0,1,5.92,3c2.35,7.3,4.48,14.75,6.32,22.16a4.55,4.55,0,0,1-3.5,5.49A4.65,4.65,0,0,1,1519.07,1556.29Zm-14-43.27a4.74,4.74,0,0,1-4.41-2.92c-2.76-6.89-5.83-13.81-9.1-20.58a4.49,4.49,0,0,1,2.29-6,4.79,4.79,0,0,1,6.28,2.2c3.36,6.95,6.5,14.07,9.35,21.15a4.51,4.51,0,0,1-2.71,5.89A4.81,4.81,0,0,1,1505.09,1513Zm-19.84-41.1a4.76,4.76,0,0,1-4.15-2.36c-3.74-6.56-7.72-13-11.84-19.23a4.46,4.46,0,0,1,1.43-6.29,4.83,4.83,0,0,1,6.53,1.38c4.23,6.37,8.32,13,12.16,19.75a4.47,4.47,0,0,1-1.86,6.19A4.85,4.85,0,0,1,1485.25,1471.92Zm-25.34-38.17a4.76,4.76,0,0,1-3.8-1.84c-4.6-6-9.45-11.89-14.41-17.52a4.43,4.43,0,0,1,.54-6.42,4.84,4.84,0,0,1,6.66.52c5.1,5.79,10.08,11.85,14.81,18a4.45,4.45,0,0,1-1,6.37A4.85,4.85,0,0,1,1459.91,1433.75Zm-30.43-34.52a4.81,4.81,0,0,1-3.39-1.38c-5.37-5.31-11-10.52-16.73-15.47a4.45,4.45,0,0,1-.36-6.44,4.86,4.86,0,0,1,6.67-.35c5.89,5.09,11.67,10.44,17.2,15.91a4.44,4.44,0,0,1-.09,6.44A4.82,4.82,0,0,1,1429.48,1399.23Zm-35-30.24a4.85,4.85,0,0,1-2.91-1c-6-4.56-12.36-9-18.75-13.16a4.44,4.44,0,0,1-1.26-6.32,4.83,4.83,0,0,1,6.56-1.22c6.57,4.29,13.05,8.84,19.27,13.52a4.45,4.45,0,0,1,.81,6.4A4.77,4.77,0,0,1,1394.48,1369Zm-417-9.73a4.77,4.77,0,0,1-3.87-1.93,4.44,4.44,0,0,1,1.14-6.34c6.44-4.38,13.15-8.62,19.93-12.61a4.83,4.83,0,0,1,6.49,1.52,4.46,4.46,0,0,1-1.57,6.26c-6.61,3.88-13.13,8-19.41,12.27A4.72,4.72,0,0,1,977.47,1359.26Zm378.1-15.69a4.86,4.86,0,0,1-2.38-.62c-6.65-3.75-13.52-7.32-20.42-10.62a4.48,4.48,0,0,1-2.13-6.11,4.8,4.8,0,0,1,6.34-2c7.09,3.39,14.14,7.07,21,10.91a4.46,4.46,0,0,1,1.7,6.23A4.76,4.76,0,0,1,1355.57,1343.57Zm-337.95-7.87a4.76,4.76,0,0,1-4.2-2.46,4.48,4.48,0,0,1,2-6.14q5.33-2.67,10.79-5.2t10.7-4.74a4.8,4.8,0,0,1,6.23,2.34,4.48,4.48,0,0,1-2.43,6q-5.22,2.22-10.42,4.62t-10.5,5.06A4.88,4.88,0,0,1,1017.62,1335.7Zm295.85-12.3a4.78,4.78,0,0,1-1.81-.35c-7.11-2.85-14.41-5.51-21.71-7.9a4.53,4.53,0,0,1-3-5.78,4.78,4.78,0,0,1,6-2.84c7.5,2.45,15,5.18,22.3,8.11a4.49,4.49,0,0,1,2.54,6A4.72,4.72,0,0,1,1313.47,1323.4Zm-252.8-5.94a4.73,4.73,0,0,1-4.45-3,4.52,4.52,0,0,1,2.84-5.84c7.44-2.6,15.07-5,22.67-7.09a4.74,4.74,0,0,1,5.85,3.12,4.54,4.54,0,0,1-3.23,5.64c-7.4,2-14.83,4.37-22.08,6.9A5,5,0,0,1,1060.67,1317.46Zm208.29-8.63a4.65,4.65,0,0,1-1.22-.16c-7.44-1.91-15-3.6-22.61-5a4.57,4.57,0,0,1-3.73-5.34,4.7,4.7,0,0,1,5.55-3.6c7.76,1.47,15.58,3.21,23.22,5.17a4.54,4.54,0,0,1,3.35,5.57A4.7,4.7,0,0,1,1269,1308.83Zm-163.1-3.89a4.7,4.7,0,0,1-4.62-3.59,4.57,4.57,0,0,1,3.62-5.42c7.74-1.6,15.64-3,23.47-4.07a4.7,4.7,0,0,1,5.35,3.85,4.57,4.57,0,0,1-4,5.16c-7.62,1.07-15.3,2.41-22.83,4A5,5,0,0,1,1105.86,1304.94Zm117-4.82-.6,0c-7.66-.94-15.43-1.64-23.1-2.07a4.56,4.56,0,1,1,.55-9.09c7.89.44,15.87,1.16,23.74,2.12a4.59,4.59,0,0,1,4.09,5.09A4.67,4.67,0,0,1,1222.83,1300.12Zm-70.44-1.7a4.65,4.65,0,0,1-4.71-4.21,4.61,4.61,0,0,1,4.35-4.88c7.89-.59,15.9-.92,23.82-1h0a4.56,4.56,0,1,1,0,9.11c-7.71.06-15.51.38-23.18,1Z"/><path class="i" d="M1525.24,1680.31a4.73,4.73,0,0,1-.65,0,4.59,4.59,0,0,1-4-5.14q.8-5.55,1.41-11.15a4.65,4.65,0,0,1,5.19-4,4.6,4.6,0,0,1,4.21,5q-.63,5.73-1.45,11.44A4.68,4.68,0,0,1,1525.24,1680.31Z"/></g><path class="j" d="M1479.49,1707.82a4.58,4.58,0,0,0-1.39-5.27L1433,1665.7a239.49,239.49,0,0,0-1.82-80.44l43.37-38.71a4.56,4.56,0,0,0,1.15-5.33l-28.6-62.59a4.9,4.9,0,0,0-4.85-2.78l-58.91,4.72A253.85,253.85,0,0,0,1323,1425l2.28-57a4.7,4.7,0,0,0-3.1-4.55L1256,1338.68a4.94,4.94,0,0,0-5.46,1.34l-38.23,43.51a267.23,267.23,0,0,0-83.46,1.75l-40.16-41.81a5,5,0,0,0-5.52-1.1l-64.94,27.56a4.66,4.66,0,0,0-2.88,4.68l4.89,56.78a252.59,252.59,0,0,0-57.69,58.16l-59.11-2.19a4.87,4.87,0,0,0-4.72,3L873,1554.09a4.58,4.58,0,0,0,1.39,5.27l45.14,36.84a239.54,239.54,0,0,0,1.82,80.45L878,1715.36a4.57,4.57,0,0,0-1.14,5.33l28.6,62.58a4.86,4.86,0,0,0,4.84,2.78l58.92-4.71a253.66,253.66,0,0,0,60.34,55.61l-2.28,57a4.7,4.7,0,0,0,3.1,4.55l66.13,24.76a5,5,0,0,0,5.47-1.34l38.23-43.51a267.24,267.24,0,0,0,83.46-1.75l40.16,41.81a5,5,0,0,0,5.52,1.1l64.94-27.56a4.69,4.69,0,0,0,2.88-4.68l-4.89-56.78a252.59,252.59,0,0,0,57.69-58.16l59.11,2.19a4.88,4.88,0,0,0,4.72-3Z"/><path class="k" d="M1176.4,1696.24a71,71,0,0,1-8.47-.5,67.93,67.93,0,0,1-45.09-24.65,63.16,63.16,0,0,1-13.79-48.16,64.31,64.31,0,0,1,25.57-43.46,69.07,69.07,0,0,1,50-13.3,67.9,67.9,0,0,1,45.09,24.65h0c23,28.39,17.67,69.49-11.78,91.62A68.83,68.83,0,0,1,1176.4,1696.24Zm-.26-121.47a59.24,59.24,0,0,0-35.71,11.88,55.41,55.41,0,0,0-22,37.4,54.39,54.39,0,0,0,11.88,41.44,58.47,58.47,0,0,0,38.8,21.21,59.44,59.44,0,0,0,43-11.44,55.36,55.36,0,0,0,22-37.4,54.37,54.37,0,0,0-11.87-41.44h0a58.42,58.42,0,0,0-38.79-21.21A61.73,61.73,0,0,0,1176.14,1574.77Z"/><path class="l" d="M1175.06,1800.11c-67.65,0-132.28-37.81-161.25-101.22a163.46,163.46,0,0,1-14.93-68.12c0-65.21,39.24-127.5,105-155.42a180.82,180.82,0,0,1,134.62-2.87c43.81,16.4,78.36,48.26,97.3,89.71h0a166.74,166.74,0,0,1,10.81,31.77c.2.87.4,1.75.58,2.62a4.18,4.18,0,0,1,.1.92,4.6,4.6,0,0,1-3.78,4.46,4.71,4.71,0,0,1-5.57-3.54,157.64,157.64,0,0,0-10.79-32.56h0c-16.92-37-47-66-85.18-82.14-2.27-1-4.56-1.88-6.89-2.75a171.08,171.08,0,0,0-127.38,2.72c-62.25,26.42-99.38,85.36-99.38,147.07a154.76,154.76,0,0,0,14.11,64.46c37,81,135.47,117.83,219.46,82.18a165.17,165.17,0,0,0,68.72-54,4.83,4.83,0,0,1,6.59-1.09,4.49,4.49,0,0,1,2,3.72,4.41,4.41,0,0,1-.87,2.63,174.54,174.54,0,0,1-72.63,57.09A180.55,180.55,0,0,1,1175.06,1800.11Z"/><rect class="m" x="1289.79" y="893.34" width="1643.14" height="1188.72" transform="translate(-30.74 44.62) rotate(-1.2)"/><g class="n"><rect class="l" x="1295.85" y="930.48" width="1086.42" height="21.2" transform="translate(-19.34 38.78) rotate(-1.2)"/><rect class="o" x="1298.22" y="1043.46" width="1086.42" height="21.2" transform="translate(-21.71 38.86) rotate(-1.2)"/><rect class="l" x="1300.43" y="1148.45" width="1086.42" height="21.2" transform="translate(-23.91 38.93) rotate(-1.2)"/><rect class="p" x="1301.07" y="1178.31" width="1276.77" height="21.2" transform="translate(-24.51 40.94) rotate(-1.2)"/><rect class="q" x="1301.69" y="1206.53" width="1510.28" height="21.2" transform="translate(-25.08 43.41) rotate(-1.2)"/><rect class="l" x="1302.49" y="1251.48" width="197.24" height="21.2" transform="translate(-26.17 29.67) rotate(-1.2)"/><rect class="r" x="1296.69" y="972.89" width="633.57" height="21.2" transform="translate(-20.28 34.06) rotate(-1.2)"/><rect class="s" x="1297.42" y="1004.44" width="1216.3" height="21.2" transform="translate(-20.87 40.2) rotate(-1.2)"/><rect class="t" x="2533.68" y="989.2" width="196.52" height="21.2" transform="translate(-20.39 55.43) rotate(-1.2)"/><rect class="l" x="2761.34" y="985.37" width="106.42" height="21.2" transform="translate(-20.27 59.26) rotate(-1.2)"/><rect class="u" x="1299.72" y="1114.15" width="1216.3" height="21.2" transform="translate(-23.17 40.27) rotate(-1.2)"/><rect class="l" x="2535.98" y="1098.91" width="196.52" height="21.2" transform="translate(-22.69 55.5) rotate(-1.2)"/><rect class="v" x="2763.64" y="1095.08" width="106.42" height="21.2" transform="translate(-22.57 59.33) rotate(-1.2)"/><rect class="l" x="1299.06" y="1085.25" width="693" height="21.2" transform="translate(-22.62 34.76) rotate(-1.2)"/><rect class="w" x="2003.43" y="1076.57" width="111.97" height="21.2" transform="translate(-22.35 43.44) rotate(-1.2)"/><rect class="x" x="2133.15" y="1074.38" width="60.63" height="21.2" transform="translate(-22.28 45.62) rotate(-1.2)"/></g><ellipse class="y" cx="2851.12" cy="836.26" rx="17.08" ry="18.64" transform="translate(-16.91 59.99) rotate(-1.2)"/><ellipse class="z" cx="2788.52" cy="837.57" rx="17.08" ry="18.64" transform="translate(-16.96 58.68) rotate(-1.2)"/><ellipse class="aa" cx="2725.92" cy="838.89" rx="17.08" ry="18.64" transform="translate(-17 57.36) rotate(-1.2)"/><path class="l" d="M1330.1,1824.13l5,236.71,316.94-6.65-5-236.71Zm313.47,220.17-301.34,6.33L1337.69,1834l301.34-6.32Z"/><polygon class="l" points="1395.73 2016.41 1580.41 2012.53 1530.29 1857.84 1491.01 1957.22 1469.42 1892.34 1395.73 2016.41"/><ellipse class="l" cx="1405.11" cy="1893.69" rx="30.44" ry="33.22" transform="translate(-39.41 29.89) rotate(-1.2)"/><path class="l" d="M1681.4,1816.76l5,236.71,317-6.65-5-236.71Zm313.47,220.17-301.34,6.32L1689,1826.67l301.34-6.32Z"/><path class="l" d="M2050.44,1809l5,236.71,316.95-6.65-5-236.71Zm313.46,220.17-301.33,6.32L2058,1818.93l301.34-6.32Z"/><polygon class="ab" points="1320.6 2452.6 1270.31 3073.51 2004.64 3058.1 1896 2440.53 1320.6 2452.6"/><path class="ac" d="M55,952,84.79,2371c2.45,116.73,89.68,210.4,196.65,211.17,475.14,3.4,2136.64,1,2588.52-15.8,77.67-2.88,139.18-72.06,139.65-156.88,1.8-329.83-.68-1122.84-60.79-1489.76-12.66-77.27-73.81-134-145.68-135C2405,779.19,643.47,772,191.88,792.57,114,796.11,53.23,866.89,55,952Z"/><path class="ad" d="M136.45,943.35,164.73,2291.5c1.43,68.15,52.72,122.63,115.18,122.34L2801.31,2395c61.92-.29,111.52-55.71,110.33-123.29L2887.83,935.47c-.85-48.32-36.95-87.17-81.23-87.41L224.7,845.3C175.18,845,135.31,889.31,136.45,943.35Z"/><path class="ae" d="M2934.32,2447.84h-.06l-2766.18,6.59a4.24,4.24,0,0,1,0-8.45l2766.17-6.59a4.24,4.24,0,0,1,.11,8.45Z"/><path class="af" d="M2165.48,3181.55,1090.73,3204.1c-29.2.61-51.61-21.62-46.47-46.1l12.54-59.82c3.77-18,21.54-31.51,43-32.69l1035.36-57c22.38-1.23,42.47,11.33,47.74,29.83l26.85,94.29C2216.69,3157.08,2195.15,3180.93,2165.48,3181.55Z"/><path class="ae" d="M1666.73,3070.12a4.24,4.24,0,0,1-.23-8.44l44.38-1.64h.06a4.25,4.25,0,0,1,.23,8.45l-44.38,1.63Z"/><path class="ae" d="M1084.36,3171.8a4.3,4.3,0,0,1-.62,0,4.19,4.19,0,0,1-3.31-4.77l5.42-43.43c2.94-23.53,20.87-41.19,42.62-42l470.76-17.39a4.24,4.24,0,0,1,.29,8.44L1128.76,3090c-18,.67-32.8,15.28-35.24,34.73l-5.42,43.43A4,4,0,0,1,1084.36,3171.8Z"/><polygon class="ag" points="2798.1 2370.7 237.77 2379.28 228.71 913.86 2789.03 905.27 2798.1 2370.7"/><path class="ah" d="M271.21,941.47l3,482.45,2466.18-8.27-3-482.45ZM2701.58,1393.1l-2391.4,8-2.67-432,2391.39-8Z"/><path class="ah" d="M274.47,1469,277,1878.67l811.78-2.73-2.54-409.64Zm793.11,389.57-771.8,2.59-2.32-374.81,771.81-2.59Z"/><path class="ah" d="M1563.25,1921.41l2.31,372.87,304.86-1-2.3-372.87ZM1863.6,2282l-292.1,1-2.16-349.71,292.1-1Z"/><polygon class="ah" points="2745.83 2290.34 1910.63 2293.14 1905.5 1463.59 2740.7 1460.79 2745.83 2290.34"/><polygon class="ah" points="1865.7 1529.25 1126.78 1531.73 1126.37 1466.2 1865.29 1463.73 1865.7 1529.25"/><polygon class="ah" points="1866.26 1619.5 1127.34 1621.98 1126.93 1556.45 1865.85 1553.97 1866.26 1619.5"/><polygon class="ah" points="1866.86 1717.84 1127.94 1720.32 1127.54 1654.79 1866.46 1652.31 1866.86 1717.84"/><polygon class="ah" points="1867.44 1811.56 1128.52 1814.04 1128.12 1748.51 1867.04 1746.03 1867.44 1811.56"/><polygon class="ah" points="1016.65 1988.78 277.73 1991.25 277.32 1925.73 1016.24 1923.25 1016.65 1988.78"/><polygon class="ah" points="1017.2 2079.02 278.29 2081.5 277.88 2015.97 1016.8 2013.49 1017.2 2079.02"/><polygon class="ah" points="1017.81 2177.36 278.89 2179.84 278.49 2114.31 1017.41 2111.84 1017.81 2177.36"/><polygon class="ah" points="1018.39 2271.08 279.47 2273.56 279.07 2208.03 1017.99 2205.55 1018.39 2271.08"/><polygon class="ah" points="434.24 1803.48 907.24 1801.89 785.56 1532.88 680.72 1703.73 628.25 1590.89 434.24 1803.48"/><ellipse class="ah" cx="463.52" cy="1591.44" rx="77.94" ry="57.48"/><polygon class="ah" points="1207.15 1336.35 1793.89 1334.38 1635.15 1034.09 1494.29 1215.06 1400.31 1113.51 1207.15 1336.35"/><ellipse class="ah" cx="1246.47" cy="1097.88" rx="84.72" ry="62.48"/><rect class="ai" x="2109.25" y="1366.34" width="28.39" height="319.71" transform="matrix(0.01, -1, 1, 0.01, 584.27, 3640.25)"/><rect class="aj" x="2108.32" y="1517.67" width="28.39" height="319.71" transform="translate(432.03 3789.72) rotate(-89.65)"/><rect class="ak" x="2042.31" y="1483.01" width="28.39" height="186.45" transform="translate(467.71 3623.04) rotate(-89.65)"/><rect class="al" x="2127.74" y="1448.23" width="28.39" height="357.93" transform="translate(501.65 3759.13) rotate(-89.65)"/><rect class="am" x="2341.54" y="1599.59" width="28.39" height="57.83" transform="translate(712.83 3974.22) rotate(-89.65)"/><rect class="an" x="2395.29" y="1613.18" width="28.39" height="31.32" transform="matrix(0.01, -1, 1, 0.01, 765.92, 4028.3)"/><rect class="ao" x="2050.13" y="1625.64" width="28.39" height="203.94" transform="translate(324.1 3781.31) rotate(-89.65)"/><rect class="ap" x="2171.94" y="1711.88" width="28.39" height="32.95" transform="translate(444.43 3903.86) rotate(-89.65)"/><rect class="aq" x="2202.57" y="1719.62" width="28.39" height="17.84" transform="translate(474.67 3934.68) rotate(-89.65)"/><rect class="ar" x="2003.69" y="2058.98" width="28.39" height="117.45" transform="translate(-112.14 4122.58) rotate(-89.65)"/><rect class="as" x="1978.9" y="2133.75" width="28.39" height="68.5" transform="translate(-187.07 4147.78) rotate(-89.65)"/><rect class="at" x="2576" y="2014.03" width="28.39" height="219.41" transform="translate(450.63 4700.87) rotate(-89.65)"/><rect class="au" x="2621.41" y="2110.48" width="28.39" height="127.96" transform="translate(445.05 4796.7) rotate(-89.65)"/><rect class="av" x="2562.26" y="2101.72" width="28.39" height="245.64" transform="matrix(0.01, -1, 1, 0.01, 336.18, 4787.32)"/><rect class="aw" x="2415.53" y="2203.8" width="28.39" height="39.69" transform="translate(191.25 4639.71) rotate(-89.65)"/><rect class="ax" x="2378.65" y="2212.67" width="28.39" height="21.49" transform="translate(154.82 4602.6) rotate(-89.65)"/><rect class="ay" x="1811.58" y="1921.85" width="303.46" height="4.34" transform="translate(27.31 3875.52) rotate(-89.65)"/><path class="az" d="M2127.4,2803.77s79.47,101.38,0,154.26H1631.29s-74.46-41,18.19-154.26c0,0-148.16-610.85-79.36-534.09,0,0,7.43,2.34,21.29,5.86l9.42,41.41,85.89,485.26,409.36,1.56,78-534.09S2302.42,2091.44,2127.4,2803.77Z"/><path class="ba" d="M2174.07,2269.68l-78,534.09-409.36-1.56L1600.83,2317l-9.42-41.41a1031.14,1031.14,0,0,0,107.43,20.8c.92.14,1.84.28,2.76.4,112.08,15.68,284.52,23.59,472.28-27,0,0,.09,0,.1,0Z"/><path class="bb" d="M2174.07,2269.68l-78,534.09-409.36-1.56L1600.83,2317l-9.42-41.41c37,8.81,72.87,15.64,107.43,20.8.92.14,1.84.28,2.76.4,275,40.43,465.52-24.63,472.28-27,0,0,.09,0,.1,0Z"/><path class="bc" d="M2060.37,2974.33a35.44,35.44,0,0,1-35.42,35.43H1752.71a35.4,35.4,0,0,1-31.44-51.73h335.12A35.16,35.16,0,0,1,2060.37,2974.33Z"/><path class="bd" d="M1971.08,3030.66a32.5,32.5,0,0,1-32.5,32.48H1832a32.49,32.49,0,0,1-24.89-53.38h156.39A32.36,32.36,0,0,1,1971.08,3030.66Z"/><rect class="be" x="1848.66" y="3063.14" width="81.37" height="179.66"/><path class="bf" d="M1959.11,3266.61a23.79,23.79,0,0,1-20,23.5,22.27,22.27,0,0,1-3.76.31H1834.75a23.81,23.81,0,1,1,0-47.62h100.56A23.8,23.8,0,0,1,1959.11,3266.61Z"/><path class="bg" d="M2084.88,3333.9H1666.33a35.54,35.54,0,0,1,35.54-35.55h128v-8.43a23.79,23.79,0,0,0,4.89.5h100.56a22.27,22.27,0,0,0,3.76-.31v8.24h110.26A35.55,35.55,0,0,1,2084.88,3333.9Z"/><rect class="bh" x="1666.32" y="3345.79" width="40.99" height="128.26" rx="14.55"/><rect class="bi" x="2045.38" y="3345.79" width="39.5" height="128.26" rx="13.07"/><rect class="bj" x="1865.02" y="3348.58" width="29.03" height="94.26" rx="9.61"/><rect class="bk" x="1674.55" y="3335.81" width="24.53" height="7.64"/><rect class="bl" x="2052.87" y="3335.81" width="24.53" height="7.64"/><rect class="bm" x="1870.4" y="3336.66" width="18.05" height="9.98"/><path class="bn" d="M1788.49,1843.82c-.66,1.58-1.73,42.43-1.73,42.43s-27.66,79,20.18,106.27c52.61,30,149.09-24.83,149.09-24.83s27.57-13.53,25.77-124c-.44-27.54-16.85-26.44-63.72-17.31C1857.64,1838.17,1788.49,1843.82,1788.49,1843.82Z"/><path class="bo" d="M1713.41,2103.07a212.52,212.52,0,0,1,64.66-30.09c8.69-2.36,55.58,11.27,84.58,10.6,39.79-.91,80.3-19,113.1-10.85,32.59,8.12,59.26,18.73,74.66,29.68,46.09,32.78,73.15,93.91,89.64,154.46-31.23,32.05-70.52,46.3-70.52,46.3l-7.27,294.31-174,89-198.63-99.73,7.11-287.61s-63.08-29.37-67.7-40.06S1657.75,2141.33,1713.41,2103.07Z"/><path class="bp" d="M1631.94,2257.84s-84.52,234.34,108.23,330.65c40-5.32,24.63-71.78,24.63-71.78s-83.75-18.54-58.6-214C1683,2283.64,1631.94,2257.84,1631.94,2257.84Z"/><path class="bq" d="M2136,2257.84s58.16,244.62-108.23,330.65c-40-5.32-24.63-71.78-24.63-71.78s67.5-33.24,58.6-214C2084.89,2283.64,2136,2257.84,2136,2257.84Z"/><path class="br" d="M2014,3428.31c12.1-51,6.63-169.2,6.63-169.2l-13-4.89-64.62-8.42s-21.08,112.35-21.42,167.8a52,52,0,0,0,2.21,15.57c1.5,1.7,3.07,3.37,4.76,4.94C1954.15,3457.82,1991.94,3451.29,2014,3428.31Z"/><path class="bs" d="M2024.55,3225.2l-1,20a38.48,38.48,0,0,1-14.73,28,47.41,47.41,0,0,1-32.5,10.08,37.31,37.31,0,0,1-24.59-11,30.3,30.3,0,0,1-8.73-23.47l2.4-30.59Z"/><path class="bt" d="M1757.58,3379.4c-8-36.93,6.82-119.25,6.82-119.25l13.3-2.18,65,.28s12.07,80.78,8,119.69a27.08,27.08,0,0,1-3.44,10.7c-1.63,1.05-3.32,2.07-5.13,3C1814.83,3405.82,1777.74,3397.63,1757.58,3379.4Z"/><path class="bu" d="M1763.23,3236l-.6,14.11c-.32,7.58,4.16,15.17,12.44,21s19.64,9.54,31.55,10.18c9.49.51,18.61-1.42,25.35-5.36s10.53-9.55,10.54-15.61l-1.14-21.72Z"/><path class="bv" d="M1778.07,2073s14.27,61.83,79.49,72.95a126.73,126.73,0,0,0,23.48,1.68c87-1.58,94.71-74.88,94.71-74.88l-56.8-12.15-4.75-63.3-85.45,6.33-1.58,60.13Z"/><polygon class="bw" points="1875.65 2219.87 1852.86 2140.88 1889.99 2139.6 1875.65 2219.87"/><path class="bx" d="M1806.37,2067.65s-54.42,5.37-93,35.42c0,0,22.62,86-7.21,199.62,0,0-8.84,60.9-4.19,88s343.93,15,343.93,15l16.46-58.52-.67-44.53s-15.44-169.52.67-190.75c0,0-36.42-28.4-86.65-39.21s-45.68-9.29-45.68-9.29l-14.12,53-23.25,18.22-8.38,38.6-6.2,52.27-25.26-77.87-23.24-46.19L1815,2065Z"/><rect class="by" x="1662.14" y="2277.32" width="446.6" height="301.61" rx="11.21"/><path class="bz" d="M1964,2632.16c-49.47,5.51-70.84,49.69-62.6,95.44.69,1,51.77,290.37,40,528.07a250.64,250.64,0,0,1,66.07,9.13q7.13,2,13.88,4.52c43.4-171.69,43.56-372.5,42.59-545.39C2063.2,2670.19,2018.81,2626.05,1964,2632.16Z"/><path class="ca" d="M1769.52,3269.86q35.34-14.76,71.84-11.79c1.05-.08.37.68,1.42.62-.94-13.75-.21-32.39-1.19-56-6.73-173,1-309.91,18.85-444.61,6.91-52.33-27.89-95.35-84.36-89.43-50.42,5.28-78.91,47.45-76.71,93.89,6.59,139-6.79,70.45-4.2,115.67,8.32,120.89,28.4,267,67.86,393.88C1764.72,3271.36,1767.82,3270.59,1769.52,3269.86Z"/><path class="cb" d="M1820.25,1827.61s-80.63,197.66,39.17,233.15c84.5,25,121.55-137.34,102.47-178.72-29.51-64-44.35-54.74-44.35-54.74Z"/><path class="cc" d="M1982.36,1889.28c-22.25,35-86.31,38.34-127.77,25.11-24.62-7.85-35.91-19.83-46.7-13.69-23.82,13.56-2.35,91.11-10.08,92.73-3.62.76-9.91-15.93-10.77-18.25-10.14-27.26-25.07-72.26-24.78-92.44.89-62.59,7.61-42.12,15.32-51.56,20.9-25.6,71.66,13,130.94-15.13,29-13.72,35-31.54,50-27.85C1984.05,1794.47,2004,1855.24,1982.36,1889.28Z"/><path class="cd" d="M1804.89,1917.35s-22.81-20.52-23.72,6.75,12.88,61.06,23.7,40.9S1804.89,1917.35,1804.89,1917.35Z"/><polygon class="ce" points="1900.13 1950.8 1904.02 1994.24 1885.67 1995.88 1900.13 1950.8"/><path class="cf" d="M1850.91,2116.41s13.94,17.93,14.41,24.27,6.9,66.65,11.59,71.19c0,0,4.91-67.84,11.61-80.27s11.6-15.19,11.6-15.19l9.22,19.73s-18.53-.76-25,93.91h-14.83s-29.54-98.83-30.11-102.24,9.09-11.4,9.09-11.4Z"/><path class="cg" d="M1917.84,2044.18s16.48,20.37-25.14,69.78c0,0,12,22.16,14.18,47.71,0,0,28.41-50.44,32.31-92.53Z"/><path class="ch" d="M1827.72,2042.69s-16.48,20.37,25.14,69.78c0,0-12,22.16-14.18,47.71,0,0-28.41-50.44-32.31-92.53Z"/><path class="ci" d="M1911.78,2404.45c2.37,16-6.21,30.52-22.21,32.89a29.29,29.29,0,0,1-33.26-24.69c-2.36-16,5-31.89,21-34.26S1909.41,2388.44,1911.78,2404.45Z"/><path class="cj" d="M1799.1,1913.13s35.11,28.51,39.78,27.4c0,0,35.68-3.76,50.54,4.57,0,0,11.58,4.14,19.22.79,0,0,31.54-6.94,49.06,1.31l6.55-4.25-1.76,9.83-4.16,3s-.95,15.39-2.54,17.57c0,0-28,1.67-47.47-2.22l-7.64-17.9-3.82-.32-8.29,18.22s-35,2.17-50.64-6.75c0,0-2.87-10.51-2.23-15.93Z"/><path class="ck" d="M1840.47,1945.1s36.22-6,46.51,4.3c0,0,8.28,7,0,18.79,0,0-26.44,4.78-46.51-4.78V1945.1Z"/><path class="cl" d="M1907.69,1950.8s-5.42,4.81,3.5,18.59c0,0,34.08,3.71,41.73,1.73,0,0,4.14-16.7,0-20.32S1924.72,1943.26,1907.69,1950.8Z"/><polygon class="cm" points="1849.08 1959.1 1859.49 1951.14 1865.57 1946.49 1863.41 1952.79 1874.88 1945.1 1874.88 1949.08 1861.98 1959.1 1859.9 1953.86 1849.08 1962.46 1849.08 1959.1"/><polygon class="cn" points="1874.88 1952.27 1857.68 1965.01 1864.05 1962.46 1880.35 1950.8 1874.88 1952.27"/><polygon class="co" points="1932.53 1950.8 1924.57 1959.1 1930.41 1959.1 1924.57 1966.28 1930.41 1965.01 1935.72 1956.37 1930.41 1956.37 1937.31 1949.4 1932.53 1950.8"/><path class="cp" d="M1943.36,1953.78c-.63.71-9.24,12.5-9.24,12.5h4.62l9.08-15.48Z"/><rect class="cq" x="495.46" y="2578.19" width="2855.72" height="78.36"/><rect class="cr" x="633.05" y="2656.55" width="87.48" height="878.7"/><rect class="cs" x="3098.69" y="2656.55" width="102.65" height="878.7"/><rect class="ct" x="723.63" y="2656.55" width="2375.06" height="215.16"/><path class="cu" d="M786.89,2677.78c-31.44,39.17-81.6,71.86-159.7,88.58,0,0-3.25.5-9,1,1-50.16,12.23-105.3,37.43-164.94h-107s-19,69.37-22.71,161.2c-85.59-15.72-191.39-74.11-171.68-269.75,5.24-51.91,49.91-91.08,102.06-91.08H732.74c53.9,0,98.57,41.92,102.31,95.82C839,2553.51,831.81,2622.13,786.89,2677.78Z"/><path class="cv" d="M655.63,2602.42c-25.2,59.64-36.43,114.78-37.43,164.94a333,333,0,0,1-92.33-3.74c3.75-91.83,22.71-161.2,22.71-161.2Z"/><polygon class="cw" points="1035.93 2239.63 1429.39 2230.05 1436.44 2585.95 991.51 2588.49 991.51 2239.63 1035.93 2239.63"/><polygon class="cx" points="1008.18 2269.22 1398.27 2257.84 1405.68 2546.91 1023.1 2546.91 1008.18 2277.32 1008.18 2269.22"/><rect class="cy" x="1213.97" y="2302.16" width="110.61" height="18.73"/><rect class="cz" x="1213.97" y="2402.02" width="110.61" height="18.73"/><rect class="da" x="1213.97" y="2335.45" width="64.51" height="18.73"/><rect class="db" x="1213.97" y="2368.74" width="123.83" height="18.73"/><rect class="dc" x="1339.86" y="2368.74" width="20.01" height="18.73"/><rect class="dd" x="1363.04" y="2368.74" width="10.83" height="18.73"/><rect class="de" x="1213.97" y="2435.31" width="70.56" height="18.73"/><rect class="df" x="1285.7" y="2435.31" width="11.4" height="18.73"/><rect class="dg" x="1298.91" y="2435.31" width="6.17" height="18.73"/><rect class="l" x="1042.57" y="2302.16" width="110.61" height="18.73"/><rect class="l" x="1042.57" y="2402.02" width="110.61" height="18.73"/><rect class="l" x="1042.57" y="2335.45" width="64.51" height="18.73"/><rect class="l" x="1042.57" y="2368.74" width="123.83" height="18.73"/><rect class="l" x="1168.45" y="2368.74" width="20.01" height="18.73"/><rect class="l" x="1191.63" y="2368.74" width="10.83" height="18.73"/><rect class="l" x="1042.57" y="2435.31" width="70.56" height="18.73"/><rect class="l" x="1114.29" y="2435.31" width="11.4" height="18.73"/><rect class="l" x="1127.5" y="2435.31" width="6.17" height="18.73"/><path class="dh" d="M798.62,3240.49v93.57c28.44-.5,58.14-.5,85.34.25,23.7.5,45.66,1.25,63.88,2.5,58.15,4.49,95.33,77.61,115,131.5a518.88,518.88,0,0,1,17,57.4s-85.59,57.15-96.32-31.94a127,127,0,0,0-8-31.19c-18.71-47.66-62.38-66.88-82.09-73.12a89.88,89.88,0,0,0-9.74-2.75s-41.42-2-85.09-2.74c-9.73-.25-19.46-.25-29-.25-27.2-.25-51.9.5-64.13,3-35.68,7.24-96.32,71.37-96.32,71.37L594,3525.71c-136.75,64.13-80.85-87.09-80.85-87.09l146-101.81s49.4-1.75,110.54-2.5v-90.08l-89.08-82.1H474.72v-60.64h19.71a124.78,124.78,0,0,0,7.24,30.44h164.2a267.59,267.59,0,0,1-35.94-30.44c-30.19-29.94-52.15-64.87-68.12-102.06-32.45-76.61-38.93-163.2-35.93-235.81,3.74-91.83,22.7-161.2,22.7-161.2h107c-25.2,59.64-36.43,114.78-37.43,164.94a364,364,0,0,0,2.75,55.4c7.73,61.39,29.94,114,57.39,157.71a451.76,451.76,0,0,0,29.19,41.42,528.47,528.47,0,0,0,78.86,79.6,445,445,0,0,0,41.18,30.44h252.28a155.06,155.06,0,0,0,4-30.44h38.68v60.64H905.17l-44.67,32.94Z"/><path class="cv" d="M798.62,3384v2.75h-29v-3C779.15,3383.72,788.89,3383.72,798.62,3384Z"/><path class="di" d="M665.86,3131.94H501.67a125,125,0,0,1-7.24-30.45c-3.49-31.44,3.49-79.35,67.38-102.06,16,37.18,37.93,72.12,68.12,102.06A269.66,269.66,0,0,0,665.86,3131.94Z"/><path class="dj" d="M1083.84,3101.49a155.15,155.15,0,0,1-4,30.45H827.57a447.46,447.46,0,0,1-41.18-30.45,528,528,0,0,1-78.85-79.6,449.87,449.87,0,0,1-29.2-41.42c135.75-12,298.2-7.24,298.2-7.24s36.93,11,67.62,39.18C1066.12,3032.62,1084.59,3061.57,1083.84,3101.49Z"/><path class="dk" d="M1289.21,3370.75l-1.5,9-14.47,92.58-69.87-9.73-7.74-1-90.83-449.17h-60.64c-30.69-28.2-67.62-39.18-67.62-39.18s-162.45-4.74-298.2,7.24c-27.45-43.67-49.66-96.32-57.39-157.71,52.15,27.7,173.68,73.36,311.92-2.25.25-.25.5-.25.75-.5l27.2,5.74,277.73,58.4Z"/><path class="dl" d="M1042.42,2440.22l-3.25,2.74-36.18,28.7-30.44,24.2-26.45,21s-12.73-11.23-29.7-27.7c-1.75,17-3,36.18-3.49,57.39-2.5,79.6,5.49,184.41,47.91,279.23l-27.2-5.74c-.25.25-.5.25-.75.5-138.24,75.61-259.77,29.95-311.92,2.25a364,364,0,0,1-2.75-55.4c5.74-.5,9-1,9-1,78.1-16.72,128.26-49.41,159.7-88.58,44.92-55.65,52.15-124.27,48.16-179.17-3.74-53.9-48.41-95.82-102.31-95.82H555.82c16.47-44.92,49.91-120,100.56-165.95a214.71,214.71,0,0,1,24.21-18.46s7.48,2,19.71,4.49c.25,0,.25,0,.5.25.5,0,1.25.25,2.74.5h.25c13.73,3.49,64.63,14.47,111.05,4a107.53,107.53,0,0,0,12-3c15.22-4.74,30.94-4.25,45.66-1,40.18,9,73.62,38.43,73.62,38.43Z"/><path class="dm" d="M908.67,2151.5s9,48.16,0,53.4c-3,1.75-17.72,9.49-36.19,18.72-14.72-3.25-30.44-3.74-45.66,1a107.53,107.53,0,0,1-12,3c-37.43,7.74-83.6,1.25-111.05-4h-.25a10.48,10.48,0,0,0-2.74-.5c-.25-.25-.25-.25-.5-.25-12.23-2.5-19.71-4.49-19.71-4.49l16-36.43a77.2,77.2,0,0,0,17.71,4.49,53.7,53.7,0,0,0,16.72-.25l105.06,4.49s-20-105.06,85.09-126.52l3-.75c0,16.72.5,32.2,2.49,39.43,5.24,20.21,8.74,48.66,8.74,48.66Z"/><path class="cv" d="M731,2186.19a53.7,53.7,0,0,1-16.72.25,77.2,77.2,0,0,1-17.71-4.49l18,3.49Z"/><path class="dn" d="M1412.23,2576.71l-60.14,25.71s-81.59-35.19-66.87-45.92c14.72-10.48-236.56,5.49-236.56,5.49l-12.73-11-63.38-55.15,30.44-24.2,36.18-28.7c20.47,9,52.41,18.47,100.32,25.46,115,16,169.93,44.16,169.93,44.16s64.13-48.16,86.84-18.71C1419,2523.06,1412.23,2576.71,1412.23,2576.71Z"/><path class="do" d="M1122.52,3411.67v60.64l-59.64-4c-19.71-53.91-56.9-127-115-131.51-18.21-1.25-40.17-2-63.88-2.5L860.5,3195.07l44.67-32.94h82.6L1005,3333.56Z"/><path class="dp" d="M975.54,3462.58l-70.37-4.5-11.73-68.62C913.16,3395.7,956.83,3414.91,975.54,3462.58Z"/><path class="dq" d="M1436.44,3472.31v71.36H1325.89L1208.11,3515l-4.74-52.4,69.87,9.73,14.47-92.58c22,17.22,51.16,46.16,84.35,92.58Z"/><path class="dr" d="M1035.93,2551,1024.7,2586H945.6l-32.69-39.43c.5-21.21,1.74-40.42,3.49-57.39,17,16.47,29.7,27.7,29.7,27.7l26.45-21Z"/><path class="ds" d="M924.14,2063.41l-3,.75c-105,21.46-85.09,126.52-85.09,126.52L731,2186.19l-16.47-.75-.25,1a77.2,77.2,0,0,1-17.71-4.49l1.74-3.75s-5.74-20-11.72-49.16c-.25-.74-.25-1.49-.5-2.24-15-71.12-31.44-194.64,24.7-224.84,80.35-42.67,187.16-67.62,296,85.6C1006.73,1987.56,1026,2041.7,924.14,2063.41Z"/><path class="cv" d="M731,2186.19a53.7,53.7,0,0,1-16.72.25l.25-1Z"/><path class="dt" d="M3219.93,2699c31.44,39.18,81.6,71.87,159.7,88.59,0,0,3.25.49,9,1-1-50.15-12.22-105.3-37.43-164.94h107.05s19,69.37,22.71,161.2c85.59-15.72,191.4-74.11,171.69-269.75-5.25-51.9-49.91-91.08-102.07-91.08H3274.08c-53.9,0-98.57,41.92-102.31,95.82C3167.77,2574.76,3175,2643.38,3219.93,2699Z"/><path class="cv" d="M3351.18,2623.67c25.21,59.64,36.44,114.79,37.43,164.94a333,333,0,0,0,92.33-3.74c-3.74-91.83-22.71-161.2-22.71-161.2Z"/><path class="du" d="M3208.2,3261.74v93.57c-28.45-.5-58.15-.5-85.34.26-23.71.49-45.67,1.24-63.89,2.49-58.14,4.49-95.32,77.61-115,131.5a518.88,518.88,0,0,0-17,57.4s85.59,57.15,96.32-31.94a127,127,0,0,1,8-31.19c18.71-47.66,62.38-66.88,82.09-73.12a92.9,92.9,0,0,1,9.74-2.75s41.42-2,85.09-2.74c9.73-.24,19.46-.24,28.94-.24,27.2-.26,51.91.49,64.14,3,35.68,7.25,96.32,71.37,96.32,71.37l15.22,67.63c136.75,64.13,80.85-87.09,80.85-87.09l-146-101.81s-49.41-1.75-110.55-2.49v-90.09l89.09-82.09H3532.1v-60.64h-19.72a124.68,124.68,0,0,1-7.23,30.44H3341a269.07,269.07,0,0,0,35.94-30.44c30.19-29.95,52.15-64.88,68.12-102.07,32.44-76.6,38.93-163.2,35.93-235.81-3.74-91.83-22.7-161.2-22.7-161.2H3351.18c25.21,59.64,36.44,114.79,37.44,164.94a364,364,0,0,1-2.75,55.4c-7.74,61.39-29.94,114-57.39,157.71a450.44,450.44,0,0,1-29.2,41.42,528.6,528.6,0,0,1-78.86,79.61,447.62,447.62,0,0,1-41.17,30.44H2927a154.4,154.4,0,0,1-4-30.44H2884.3v60.64h217.35l44.66,32.93Z"/><polygon class="dv" points="2969.72 2236.85 2576.26 2227.27 2569.21 2583.17 3014.14 2585.72 3014.14 2236.85 2969.72 2236.85"/><polygon class="ah" points="2997.47 2266.44 2607.38 2255.06 2599.97 2544.14 2982.55 2544.14 2997.47 2274.55 2997.47 2266.44"/><rect class="l" x="2804.81" y="2300.91" width="110.61" height="18.73" transform="translate(57.93 -69.94) rotate(1.42)"/><rect class="l" x="2802.34" y="2400.75" width="110.61" height="18.73" transform="translate(60.4 -69.84) rotate(1.42)"/><rect class="l" x="2803.99" y="2333.62" width="64.51" height="18.73" transform="translate(58.73 -69.34) rotate(1.42)"/><rect class="l" x="2803.16" y="2367.63" width="123.83" height="18.73" transform="translate(59.58 -70.04) rotate(1.42)"/><rect class="l" x="2929.02" y="2369.46" width="20.01" height="18.73" transform="translate(59.65 -71.86) rotate(1.42)"/><rect class="l" x="2952.2" y="2369.92" width="10.83" height="18.73" transform="translate(59.67 -72.32) rotate(1.42)"/><rect class="l" x="2801.52" y="2433.53" width="70.56" height="18.73" transform="translate(61.2 -69.32) rotate(1.42)"/><rect class="l" x="2873.24" y="2434.57" width="11.4" height="18.73" transform="translate(61.24 -70.36) rotate(1.42)"/><rect class="l" x="2886.44" y="2434.83" width="6.17" height="18.73" transform="translate(61.25 -70.62) rotate(1.42)"/><rect class="dw" x="2633.45" y="2296.68" width="110.61" height="18.73" transform="translate(57.78 -65.71) rotate(1.42)"/><rect class="dx" x="2630.99" y="2396.51" width="110.61" height="18.73" transform="translate(60.24 -65.61) rotate(1.42)"/><rect class="dy" x="2632.64" y="2329.39" width="64.51" height="18.73" transform="translate(58.58 -65.11) rotate(1.42)"/><rect class="dz" x="2631.81" y="2363.4" width="123.83" height="18.73" transform="translate(59.43 -65.81) rotate(1.42)"/><rect class="ea" x="2757.67" y="2365.22" width="20.01" height="18.73" transform="translate(59.49 -67.63) rotate(1.42)"/><rect class="eb" x="2780.84" y="2365.68" width="10.83" height="18.73" transform="translate(59.51 -68.09) rotate(1.42)"/><rect class="ec" x="2630.17" y="2429.29" width="70.56" height="18.73" transform="translate(61.04 -65.09) rotate(1.42)"/><rect class="ed" x="2701.88" y="2430.34" width="11.4" height="18.73" transform="translate(61.08 -66.13) rotate(1.42)"/><rect class="ee" x="2715.09" y="2430.6" width="6.17" height="18.73" transform="translate(61.09 -66.39) rotate(1.42)"/><path class="cv" d="M3208.2,3405.22V3408h28.94v-3C3227.66,3405,3217.93,3405,3208.2,3405.22Z"/><path class="ef" d="M3341,3153.19h164.2a124.94,124.94,0,0,0,7.24-30.44c3.49-31.45-3.5-79.36-67.38-102.07-16,37.18-37.93,72.12-68.12,102.07A269,269,0,0,1,3341,3153.19Z"/><path class="eg" d="M2923,3122.75a153.66,153.66,0,0,0,4,30.44h252.28a448.81,448.81,0,0,0,41.18-30.44,529.06,529.06,0,0,0,78.85-79.61,450.44,450.44,0,0,0,29.2-41.42c-135.75-12-298.2-7.24-298.2-7.24s-36.94,11-67.63,39.18C2940.69,3053.87,2922.23,3082.82,2923,3122.75Z"/><path class="eh" d="M2717.61,3392l1.49,9,14.48,92.58,69.87-9.73,7.73-1L2902,3033.66h60.64c30.69-28.2,67.63-39.18,67.63-39.18s162.45-4.74,298.2,7.24c27.44-43.67,49.65-96.32,57.39-157.71-52.15,27.7-173.68,73.36-311.92-2.24-.25-.25-.5-.25-.75-.5L3046,2847l-277.74,58.39Z"/><path class="ei" d="M3388.62,2788.61a366.81,366.81,0,0,1-2.75,55.41c-52.15,27.69-173.68,73.36-311.92-2.25-.25-.26-.51-.26-.75-.5L3046,2847c42.42-94.82,50.42-199.63,47.93-279.22-.51-21.22-1.76-40.44-3.5-57.4,0,0,63-30.2,39.28-131.81s-69-95.27-69-95.27,33.44-29.45,73.62-38.43c14.72-3.25,30.44-3.74,45.66,1a106.88,106.88,0,0,0,12,3c46.42,10.47,97.33-.51,111.06-4h.24c1.5-.25,2.25-.5,2.75-.5.25-.25.25-.25.49-.25,12.24-2.5,19.72-4.49,19.72-4.49a214.6,214.6,0,0,1,24.2,18.46c50.67,45.92,84.1,121,100.57,165.95H3274.08c-53.91,0-98.57,41.92-102.31,95.82-4,54.9,3.24,123.52,48.16,179.17,31.44,39.18,81.6,71.86,159.7,88.59C3379.63,2787.62,3382.87,2788.11,3388.62,2788.61Z"/><path class="ej" d="M3098.15,2172.75s-9,48.16,0,53.41c3,1.74,17.72,9.48,36.18,18.71,14.73-3.24,30.45-3.74,45.67,1a104.84,104.84,0,0,0,12,3c37.43,7.74,83.59,1.25,111-4h.25a10.63,10.63,0,0,1,2.75-.5c.25-.25.25-.25.5-.25,12.22-2.49,19.71-4.49,19.71-4.49l-16-36.43a77.16,77.16,0,0,1-17.72,4.49,53.7,53.7,0,0,1-16.72-.25l-105.05,4.49s20-105-85.1-126.51l-3-.75c0,16.72-.5,32.19-2.49,39.42-5.25,20.22-8.74,48.66-8.74,48.66Z"/><path class="cv" d="M3275.82,2207.44a53.7,53.7,0,0,0,16.72.25,77.16,77.16,0,0,0,17.72-4.49l-18,3.49Z"/><path class="ek" d="M2594.58,2598l60.14,25.7s81.6-35.19,66.88-45.92c-14.72-10.48,236.56,5.49,236.56,5.49l12.73-11,63.38-55.14-30.44-24.21-36.19-28.7c-20.46,9-52.4,18.47-100.31,25.46-115,16-169.94,44.16-169.94,44.16s-64.13-48.16-86.84-18.71C2587.85,2544.32,2594.58,2598,2594.58,2598Z"/><path class="el" d="M2884.3,3432.92v60.64l59.64-4c19.71-53.9,56.89-127,115-131.51,18.22-1.25,40.18-2,63.89-2.5l23.45-139.24-44.66-32.94h-82.6l-17.22,171.44Z"/><path class="em" d="M3031.28,3483.83l70.37-4.49,11.72-68.63C3093.66,3417,3050,3436.17,3031.28,3483.83Z"/><path class="en" d="M2570.38,3493.56v71.37h110.54l117.79-28.7,4.74-52.4-69.87,9.73L2719.1,3401c-22,17.22-51.15,46.17-84.34,92.58Z"/><path class="eo" d="M2970.89,2572.26l11.23,34.94h79.1l32.69-39.43c-.5-21.21-1.75-40.42-3.49-57.39-17,16.47-29.7,27.7-29.7,27.7l-26.45-21Z"/><path class="cv" d="M3275.82,2207.44a53.7,53.7,0,0,0,16.72.25l-.25-1Z"/><path class="ep" d="M3085.67,2085.42s-84.36-30.38-20.66-96.83,175.34-64.23,188.72-39.19c26.11,48.83,69.46,71,87.38,114.23,41.64,100.56,47.66,241.14-2.81,263.82-38.64,17.36-102.59-37.87-115-48.57a224.9,224.9,0,0,1-52.56-67c-20.9-24.51-29.65-46.83-33.64-63.54-5.17-21.66-5.81-48.41-15.4-50.18-4.92-.91-7.77,5.61-15.05,5.59C3098.14,2103.77,3091,2094.77,3085.67,2085.42Z"/><path class="eq" d="M3308.51,2424s-24.62-49.14,15.44-110.43,107.61,64.16,103.32,85-9.76,25.41-9.76,25.41Z"/><path class="er" d="M3090.42,2510.38h0l-.27.18-34.78,23.25c-31.25,20.1-75.3,46.28-97.19,49.43L2930.53,2477s20.37-.53,37.12-12.74c11.42-8.33,28.81-55.5,53.56-107.83l39.51-73.08s45.26-6.35,69,95.27S3090.42,2510.38,3090.42,2510.38Z"/><path class="es" d="M3060.72,2283.3l-39.51,73.08C3032.74,2332,3045.87,2306.5,3060.72,2283.3Z"/><path class="et" d="M3090.13,2510.57c-2.15,1.51-16.2,11.31-34.78,23.25Z"/><path class="eu" d="M3286.72,1848.6H3152.79c-13.05,0-23.63-9.83-23.63-22h0V1658.22c0-12.13,10.58-22,23.63-22h110.3l47.27,43.94v146.45c0,12.13-10.58,22-23.64,22Z"/><path class="ev" d="M3129.16,1790h181.2v36.62c0,12.13-10.58,22-23.64,22H3152.79c-13.05,0-23.63-9.83-23.63-22h0V1790Z"/><path class="ew" d="M3310.36,1680.19h-23.64c-13,0-23.63-9.84-23.63-22v-22Z"/><path class="ex" d="M3263.09,1724.12v-14.64h-16.91a24,24,0,0,0-2.16-4.87L3256,1693.5l-11.14-10.36-11.95,11.11a28.63,28.63,0,0,0-5.24-2v-12h-15.76v12a28.36,28.36,0,0,0-5.24,2l-11.95-11.11-11.14,10.36,11.95,11.11a24.63,24.63,0,0,0-2.17,4.87h-16.9v14.64h16.9a24.63,24.63,0,0,0,2.17,4.87l-11.95,11.11,11.14,10.35,11.95-11.1a29.08,29.08,0,0,0,5.24,2v12.05h15.76v-12.05a29.37,29.37,0,0,0,5.24-2l11.95,11.1L3256,1740.1,3244,1729a24,24,0,0,0,2.16-4.87Zm-43.33,3.66c-6.53,0-11.82-4.92-11.82-11s5.29-11,11.82-11,11.82,4.92,11.82,11S3226.29,1727.78,3219.76,1727.78Z"/><path class="ey" d="M3168.55,1724.12H3271v36.61H3168.55Z"/><path class="l" d="M3235.52,1742.43H3204a3.67,3.67,0,1,1,0-7.33h31.52a3.67,3.67,0,1,1,0,7.33Z"/><path class="l" d="M3196.12,1808.33a3.67,3.67,0,1,0,0-7.32h-15.75a3.81,3.81,0,0,0-3.94,3.66V1834a3.81,3.81,0,0,0,3.94,3.66h15.75a3.67,3.67,0,1,0,0-7.32h-11.81V1823h3.94a3.67,3.67,0,1,0,0-7.32h-3.94v-7.32Z"/><path class="l" d="M3259.15,1808.33a3.67,3.67,0,1,0,0-7.32h-15.76a3.81,3.81,0,0,0-3.94,3.66V1834a3.81,3.81,0,0,0,3.94,3.66h15.76a3.67,3.67,0,1,0,0-7.32h-11.82V1823h3.94a3.67,3.67,0,1,0,0-7.32h-3.94v-7.32Z"/><path class="l" d="M3229.4,1801.39a4.09,4.09,0,0,0-5.29,1.64l-4.35,8.1-4.36-8.1a4.09,4.09,0,0,0-5.3-1.6,3.55,3.55,0,0,0-1.74,4.88l7,13-7,13a3.55,3.55,0,0,0,1.72,4.93,4.1,4.1,0,0,0,5.3-1.6l0-.05,4.36-8.1,4.35,8.1a4.09,4.09,0,0,0,5.28,1.67,3.55,3.55,0,0,0,1.8-4.9l0,0-7-13,7-13A3.56,3.56,0,0,0,3229.4,1801.39Z"/><rect class="ez" x="3012.12" y="1326.88" width="48.08" height="48.08"/><rect class="fa" x="3073.32" y="1326.88" width="48.08" height="48.08"/><rect class="fb" x="3134.52" y="1326.88" width="48.08" height="48.08"/><rect class="fc" x="3195.72" y="1326.88" width="48.08" height="48.08"/><rect class="fd" x="3195.72" y="1388.08" width="48.08" height="48.08"/><rect class="fe" x="3195.72" y="1449.28" width="48.08" height="48.08"/><polygon class="ff" points="3195.72 1515.72 3195.72 1541.95 3156.38 1541.95 3221.94 1611.89 3287.51 1541.95 3243.8 1541.95 3243.8 1515.72 3195.72 1515.72"/><path class="l" d="M3056.59,1527.38H2838.06c-11.65,0-21.1-10.36-21.1-23.15V1224.16c0-12.78,9.45-23.15,21.1-23.15h187.23l52.4,65.77v237.45C3077.69,1517,3068.24,1527.38,3056.59,1527.38Z"/><path class="fg" d="M3025.29,1201v49.16c0,9.41,7,17,15.59,16.95l36.81-.34Z"/><g class="n"><rect class="fh" x="2843.2" y="1270.85" width="153.92" height="26.07"/><rect class="fi" x="2843.2" y="1409.81" width="153.92" height="26.07"/><rect class="fj" x="2843.2" y="1317.17" width="89.76" height="26.07"/><rect class="fk" x="2843.2" y="1363.49" width="172.33" height="26.07"/><rect class="fl" x="3018.38" y="1363.49" width="27.84" height="26.07"/><rect class="fm" x="3050.64" y="1363.49" width="15.08" height="26.07"/><rect class="fn" x="2843.2" y="1456.14" width="98.18" height="26.07"/><rect class="fo" x="2943.01" y="1456.14" width="15.86" height="26.07"/><rect class="fp" x="2961.39" y="1456.14" width="8.59" height="26.07"/></g></svg>